<svg width="267" height="190" viewBox="0 0 267 190" fill="none" xmlns="http://www.w3.org/2000/svg">
<ellipse opacity="0.5" cx="171.94" cy="98.5" rx="88.8269" ry="85.5" fill="black"/>
<g clip-path="url(#clip0_2049_358)">
<path d="M124.085 150.864C126.838 148.595 127.765 145.799 128.077 141.852C128.389 137.905 127.166 133.824 124.818 130.989C122.861 128.627 120.166 127.075 118.709 124.252C117.156 121.246 117.209 117.146 115.052 114.712C113.57 113.04 111.402 112.594 109.6 111.437C108.131 110.493 106.92 109.084 105.575 107.91C104.23 106.735 102.634 105.761 100.966 105.908C98.4511 106.135 96.4943 109.051 96.375 112.027C96.2558 115.003 97.6618 117.85 99.5856 119.777C100.981 121.177 102.7 122.247 103.613 124.117C105.332 127.632 103.537 132.517 105.38 135.942C106.725 138.445 109.778 139.64 110.202 142.562C110.357 143.638 110.1 144.732 110.108 145.823C110.131 149.23 112.829 151.979 115.669 152.584C118.509 153.189 121.41 152.137 124.087 150.864" fill="#F5F5F5"/>
<path d="M106.42 117.889C106.42 117.889 106.517 118.036 106.722 118.288C106.956 118.566 107.258 118.926 107.636 119.373C108.04 119.834 108.527 120.407 109.055 121.111C109.59 121.809 110.227 122.573 110.854 123.502C111.176 123.958 111.511 124.434 111.862 124.932C112.209 125.429 112.537 125.981 112.897 126.535C113.628 127.629 114.316 128.879 115.062 130.173C116.491 132.811 117.925 135.813 119.191 139.104C120.433 142.41 121.384 145.67 122.105 148.682C122.43 150.198 122.765 151.637 122.97 153.007C123.082 153.69 123.214 154.346 123.298 154.984C123.379 155.623 123.458 156.237 123.534 156.825C123.707 157.993 123.765 159.063 123.854 160.001C123.948 160.936 123.988 161.745 124.014 162.411C124.047 163.04 124.072 163.547 124.095 163.936C124.118 164.284 124.135 164.47 124.146 164.47C124.158 164.47 124.163 164.287 124.163 163.936C124.158 163.544 124.153 163.037 124.148 162.405C124.146 161.739 124.125 160.924 124.047 159.983C123.976 159.042 123.935 157.963 123.778 156.789C123.709 156.198 123.638 155.581 123.564 154.937C123.486 154.292 123.361 153.633 123.255 152.944C123.057 151.562 122.732 150.115 122.415 148.586C121.704 145.55 120.757 142.266 119.509 138.939C118.232 135.628 116.78 132.613 115.331 129.97C114.575 128.672 113.874 127.425 113.128 126.334C112.763 125.783 112.428 125.235 112.072 124.737C111.715 124.246 111.372 123.772 111.042 123.319C110.402 122.399 109.748 121.647 109.197 120.961C108.651 120.269 108.151 119.711 107.73 119.265C107.334 118.839 107.017 118.498 106.771 118.234C106.55 118.003 106.428 117.886 106.42 117.895V117.889Z" fill="#E0E0E0"/>
<path d="M247.515 92.5566C247.515 92.5566 245.093 90.6655 242.142 97.5044C239.19 104.343 238.071 108.287 238.071 108.287C238.071 108.287 237.292 109.72 236.457 108.785C235.624 107.85 234.482 105.191 233.066 105.671C231.596 106.168 231.112 108.104 231.393 110.948C231.672 113.792 232.094 120.053 232.129 120.619C232.165 121.174 231.896 121.995 231.241 121.464C230.586 120.934 226.822 115.983 224.939 118.234C223.056 120.484 224.939 128.258 225.132 129.112C225.325 129.967 225.183 130.332 224.838 130.545C224.495 130.758 223.361 128.951 222.241 127.596C221.122 126.238 219.622 124.899 218.627 126.304C217.632 127.71 217.315 133.545 222.018 143.018L224.439 147.241L228.772 146.956C238.01 145.682 241.761 141.867 242.114 140.084C242.467 138.301 240.657 137.696 239.066 137.456C237.474 137.216 235.573 137.237 235.507 136.784C235.444 136.332 235.604 135.978 236.299 135.646C236.992 135.313 243.383 132.406 243.771 129.277C244.159 126.149 238.545 125.579 237.792 125.282C237.038 124.986 237.431 124.237 237.827 123.937C238.231 123.631 242.718 120.257 244.809 118.806C246.9 117.356 247.918 115.734 247.37 114.05C246.839 112.426 244.357 112.95 243.22 112.729C242.086 112.507 242.583 110.909 242.583 110.909C242.583 110.909 244.576 107.481 247.421 100.579C250.266 93.6774 247.456 92.5236 247.456 92.5236" fill="#EBEBEB"/>
<path d="M244.862 98.6762C244.862 98.6762 244.847 98.7271 244.809 98.823C244.768 98.9249 244.713 99.0688 244.639 99.2516C244.484 99.6322 244.263 100.184 243.977 100.891C243.4 102.311 242.553 104.364 241.5 106.891C239.393 111.949 236.434 118.908 233.142 126.58C229.85 134.255 226.878 141.205 224.749 146.252C223.688 148.772 222.83 150.813 222.234 152.23C221.939 152.932 221.708 153.477 221.548 153.855C221.47 154.034 221.411 154.175 221.368 154.274C221.328 154.37 221.302 154.415 221.302 154.415C221.302 154.415 221.317 154.364 221.356 154.268C221.396 154.166 221.452 154.025 221.526 153.84C221.68 153.459 221.901 152.908 222.188 152.203C222.764 150.783 223.612 148.733 224.665 146.204C226.772 141.145 229.733 134.186 233.023 126.511C236.312 118.839 239.286 111.889 241.413 106.846C242.474 104.325 243.332 102.284 243.928 100.867C244.223 100.166 244.454 99.6202 244.614 99.2426C244.692 99.0628 244.751 98.9219 244.794 98.823C244.834 98.7271 244.86 98.6822 244.86 98.6822L244.862 98.6762Z" fill="#E0E0E0"/>
<path d="M234.538 109.459C234.538 109.459 234.586 109.579 234.647 109.804C234.71 110.028 234.792 110.358 234.891 110.766C235.086 111.581 235.332 112.717 235.583 113.972C235.827 115.213 236.05 116.337 236.218 117.194C236.297 117.58 236.363 117.907 236.416 118.168C236.464 118.399 236.484 118.527 236.477 118.53C236.469 118.533 236.429 118.411 236.365 118.186C236.304 117.961 236.22 117.631 236.127 117.224C235.939 116.406 235.705 115.267 235.451 114.011C235.2 112.773 234.972 111.653 234.797 110.796C234.715 110.409 234.649 110.085 234.594 109.822C234.548 109.591 234.525 109.462 234.535 109.459H234.538Z" fill="#E0E0E0"/>
<path d="M236.873 118.623C236.863 118.581 238.819 117.88 241.246 117.056C243.672 116.232 245.647 115.6 245.657 115.641C245.667 115.683 243.71 116.385 241.284 117.209C238.86 118.033 236.883 118.665 236.873 118.623Z" fill="#E0E0E0"/>
<path d="M231.37 130.137C231.37 130.137 231.485 130.119 231.69 130.119C231.924 130.119 232.213 130.119 232.558 130.122C233.289 130.122 234.299 130.122 235.416 130.071C236.53 130.024 237.54 129.94 238.269 129.871C238.611 129.838 238.901 129.811 239.132 129.79C239.335 129.772 239.449 129.769 239.451 129.778C239.451 129.79 239.342 129.814 239.139 129.85C238.936 129.886 238.642 129.934 238.279 129.982C237.55 130.077 236.54 130.182 235.424 130.23C234.307 130.281 233.292 130.266 232.561 130.236C232.195 130.218 231.898 130.2 231.695 130.182C231.49 130.164 231.378 130.149 231.378 130.137H231.37Z" fill="#E0E0E0"/>
<path d="M227.713 122.399C227.713 122.399 227.782 122.495 227.883 122.684C227.997 122.903 228.137 123.173 228.302 123.49C228.65 124.177 229.122 125.127 229.637 126.185C230.152 127.242 230.612 128.201 230.939 128.903C231.089 129.229 231.216 129.508 231.32 129.736C231.406 129.934 231.452 130.047 231.444 130.05C231.436 130.056 231.376 129.955 231.274 129.766C231.16 129.547 231.02 129.277 230.855 128.96C230.508 128.273 230.035 127.323 229.52 126.265C229.005 125.208 228.546 124.249 228.221 123.547C228.071 123.221 227.944 122.942 227.84 122.714C227.754 122.516 227.708 122.402 227.716 122.399H227.713Z" fill="#E0E0E0"/>
<path d="M221.759 131.837C221.759 131.837 221.843 131.962 221.972 132.205C222.112 132.475 222.295 132.823 222.51 133.236C222.96 134.111 223.574 135.325 224.244 136.674C224.914 138.019 225.515 139.245 225.944 140.135C226.147 140.561 226.315 140.917 226.447 141.193C226.563 141.445 226.622 141.585 226.614 141.591C226.607 141.597 226.53 141.466 226.401 141.223C226.261 140.953 226.079 140.605 225.863 140.192C225.414 139.317 224.8 138.103 224.13 136.754C223.46 135.409 222.858 134.183 222.429 133.293C222.226 132.868 222.059 132.511 221.927 132.235C221.81 131.983 221.751 131.843 221.759 131.837Z" fill="#E0E0E0"/>
<path d="M226.556 141.319C226.556 141.319 226.701 141.298 226.959 141.286C227.244 141.274 227.612 141.262 228.058 141.244C228.987 141.208 230.266 141.151 231.68 141.04C233.094 140.932 234.37 140.794 235.294 140.689C235.738 140.638 236.106 140.596 236.388 140.564C236.647 140.537 236.789 140.525 236.792 140.537C236.792 140.549 236.652 140.578 236.396 140.626C236.139 140.674 235.766 140.734 235.304 140.803C234.383 140.938 233.104 141.094 231.688 141.202C230.271 141.313 228.987 141.352 228.058 141.361C227.594 141.361 227.218 141.361 226.957 141.352C226.698 141.346 226.553 141.334 226.553 141.325L226.556 141.319Z" fill="#E0E0E0"/>
<path d="M195.334 58.1494H212.757C213.516 58.1494 214.13 58.8747 214.13 59.7708V73.4035C214.13 74.2996 213.516 75.0249 212.757 75.0249H203.582L199.219 80.1765V75.0249H195.334C194.77 75.0249 194.316 74.4854 194.316 73.8231V59.3512C194.316 58.6859 194.773 58.1494 195.334 58.1494Z" fill="#E0E0E0"/>
<path d="M201.115 66.8734C201.115 67.5417 200.656 68.0841 200.09 68.0841C199.524 68.0841 199.064 67.5417 199.064 66.8734C199.064 66.205 199.524 65.6626 200.09 65.6626C200.656 65.6626 201.115 66.205 201.115 66.8734Z" fill="#FAFAFA"/>
<path d="M205.171 66.8734C205.171 67.5417 204.711 68.0841 204.145 68.0841C203.579 68.0841 203.12 67.5417 203.12 66.8734C203.12 66.205 203.579 65.6626 204.145 65.6626C204.711 65.6626 205.171 66.205 205.171 66.8734Z" fill="#FAFAFA"/>
<path d="M209.227 66.8734C209.227 67.5417 208.767 68.0841 208.201 68.0841C207.635 68.0841 207.176 67.5417 207.176 66.8734C207.176 66.205 207.635 65.6626 208.201 65.6626C208.767 65.6626 209.227 66.205 209.227 66.8734Z" fill="#FAFAFA"/>
<path d="M223.65 161.083C219.29 156.078 219.213 148.331 220.343 141.597C220.531 140.474 220.592 139.263 221.183 138.358C221.774 137.453 222.932 136.979 223.723 137.621C224.381 138.151 224.556 139.188 224.84 140.072C225.221 141.247 225.886 142.29 226.736 143.036C227.294 143.527 228.018 143.899 228.673 143.623C229.574 143.246 229.855 141.915 230.005 140.791C230.284 138.693 230.561 136.596 230.84 134.498C230.99 133.374 231.145 132.223 231.589 131.213C232.033 130.203 232.822 129.337 233.769 129.211C234.715 129.085 235.751 129.919 235.789 131.054C235.804 131.528 235.66 131.986 235.624 132.46C235.586 132.93 235.698 133.485 236.056 133.686C236.418 133.889 236.842 133.644 237.172 133.371C238.312 132.424 239.18 131.09 240.005 129.757C240.829 128.423 241.639 127.051 242.703 125.984C243.766 124.917 245.134 124.174 246.51 124.344C247.885 124.515 249.202 125.789 249.327 127.437C249.454 129.088 248.449 130.545 247.418 131.666C245.89 133.326 244.164 134.723 242.307 135.795C241.972 135.99 241.609 136.197 241.436 136.593C241.126 137.303 241.624 138.163 242.218 138.529C242.888 138.945 243.672 139.005 244.398 139.251C245.126 139.497 245.878 140.039 246.043 140.92C246.273 142.143 245.294 143.192 244.385 143.827C242.563 145.098 240.56 145.994 238.489 146.464C237.748 146.632 236.974 146.755 236.33 147.229C235.685 147.702 235.205 148.646 235.436 149.503C235.667 150.36 236.51 150.783 237.264 150.765C238.02 150.747 238.741 150.402 239.482 150.225C240.87 149.893 242.545 150.324 243.2 151.823C243.629 152.806 243.51 154.037 243.086 155.029C242.662 156.021 241.974 156.816 241.258 157.529C238.761 160.031 235.754 161.853 232.546 162.51C229.34 163.169 226.48 162.962 223.645 161.08" fill="#7687C3"/>
<path d="M222.883 166.088C223.462 163.445 224.396 160.373 225.718 157.121C227.033 153.867 228.726 150.441 230.601 146.929C231.073 146.054 231.538 145.188 231.997 144.334C232.457 143.482 232.914 142.64 233.403 141.849C234.375 140.258 235.413 138.819 236.436 137.486C237.457 136.152 238.467 134.932 239.418 133.8C240.373 132.67 241.279 131.633 242.139 130.734C243.855 128.924 245.383 127.659 246.461 126.841C246.999 126.43 247.426 126.128 247.718 125.927C247.857 125.831 247.969 125.756 248.05 125.702C248.126 125.651 248.164 125.627 248.167 125.633C248.167 125.636 248.131 125.666 248.06 125.723C247.979 125.783 247.872 125.864 247.735 125.966C247.451 126.179 247.03 126.49 246.497 126.913C245.431 127.749 243.921 129.029 242.22 130.848C241.368 131.753 240.469 132.793 239.52 133.925C238.573 135.064 237.568 136.287 236.553 137.618C235.538 138.948 234.507 140.387 233.54 141.969C233.056 142.757 232.604 143.593 232.142 144.447C231.683 145.302 231.218 146.165 230.746 147.04C228.873 150.549 227.18 153.966 225.86 157.205C224.536 160.442 223.591 163.496 223 166.124" fill="#647A84"/>
<path d="M233.454 141.849C233.454 141.849 233.434 141.672 233.426 141.352C233.419 141.031 233.421 140.567 233.431 139.994C233.452 138.849 233.525 137.267 233.611 135.526C233.698 133.782 233.751 132.205 233.756 131.063C233.759 130.491 233.759 130.029 233.756 129.709C233.756 129.388 233.756 129.211 233.771 129.211C233.784 129.211 233.802 129.385 233.827 129.706C233.853 130.024 233.873 130.488 233.886 131.06C233.913 132.205 233.878 133.791 233.792 135.535C233.703 137.255 233.622 138.807 233.561 139.997C233.535 140.534 233.515 140.986 233.497 141.349C233.482 141.669 233.467 141.846 233.454 141.846V141.849Z" fill="#647A84"/>
<path d="M246.065 141.505C246.065 141.505 245.885 141.511 245.568 141.481C245.248 141.454 244.789 141.412 244.218 141.379C243.076 141.307 241.497 141.271 239.753 141.322C238.01 141.376 236.434 141.505 235.294 141.636C234.726 141.696 234.264 141.762 233.946 141.804C233.629 141.849 233.452 141.864 233.449 141.852C233.449 141.837 233.622 141.792 233.936 141.723C234.251 141.657 234.71 141.57 235.279 141.49C236.416 141.319 237.997 141.166 239.746 141.112C241.494 141.061 243.078 141.121 244.22 141.232C244.791 141.283 245.253 141.349 245.57 141.4C245.888 141.454 246.063 141.493 246.06 141.508L246.065 141.505Z" fill="#647A84"/>
<path d="M225.904 156.885C225.904 156.885 225.878 156.822 225.845 156.693C225.807 156.54 225.764 156.354 225.708 156.129C225.591 155.641 225.437 154.925 225.256 154.04C224.893 152.272 224.459 149.809 224.01 147.082C223.561 144.355 223.147 141.891 222.815 140.114C222.652 139.251 222.518 138.541 222.419 138.013C222.376 137.785 222.343 137.597 222.315 137.441C222.292 137.309 222.284 137.24 222.289 137.237C222.295 137.237 222.315 137.303 222.348 137.429C222.386 137.582 222.429 137.767 222.485 137.992C222.602 138.481 222.756 139.197 222.937 140.081C223.3 141.849 223.734 144.313 224.183 147.04C224.632 149.764 225.046 152.23 225.378 154.005C225.541 154.868 225.675 155.578 225.774 156.105C225.817 156.333 225.85 156.525 225.878 156.678C225.901 156.81 225.909 156.879 225.904 156.882V156.885Z" fill="#647A84"/>
<path d="M243.025 153.825C243.025 153.825 242.966 153.849 242.852 153.873C242.718 153.9 242.553 153.93 242.355 153.969C241.895 154.052 241.276 154.163 240.52 154.301C238.972 154.583 236.837 154.996 234.479 155.461C232.119 155.925 229.98 156.318 228.426 156.561C227.65 156.684 227.02 156.774 226.584 156.825C226.383 156.849 226.216 156.867 226.081 156.882C225.967 156.893 225.906 156.893 225.904 156.887C225.904 156.882 225.962 156.864 226.076 156.84C226.211 156.813 226.376 156.783 226.574 156.744C227.033 156.66 227.652 156.549 228.406 156.411C229.954 156.132 232.089 155.716 234.449 155.251C236.807 154.787 238.946 154.394 240.502 154.151C241.279 154.028 241.908 153.939 242.345 153.888C242.545 153.864 242.713 153.846 242.847 153.831C242.961 153.819 243.022 153.819 243.025 153.825Z" fill="#647A84"/>
<path d="M106.545 137.441C107.918 137.006 109.418 137.417 110.626 138.298C111.834 139.182 112.778 140.501 113.532 141.924C114.988 144.678 115.488 148.367 115.539 151.616C112.489 151.448 109.895 148.601 108.656 147.058C106.697 144.618 104.413 138.807 106.545 137.444" fill="#7687C3"/>
<path d="M120.44 153.819C119.191 152.662 118.641 150.624 118.912 148.775C119.184 146.929 120.201 145.299 121.516 144.247C122.125 143.761 122.877 143.378 123.58 143.626C124.237 143.86 124.691 144.618 124.821 145.415C124.95 146.213 124.803 147.037 124.574 147.801C123.793 150.423 122.628 152.788 120.44 153.819Z" fill="#7687C3"/>
<path d="M123.212 164.095C123.194 164.107 123.085 163.9 122.907 163.514C122.729 163.13 122.483 162.567 122.196 161.859C121.63 160.451 120.869 158.446 120.506 156.063C120.146 153.678 120.41 151.43 120.917 149.965C121.166 149.227 121.443 148.67 121.663 148.316C121.884 147.96 122.029 147.786 122.044 147.798C122.097 147.84 121.554 148.592 121.123 150.055C120.681 151.502 120.46 153.678 120.811 156.003C121.163 158.329 121.882 160.325 122.397 161.757C122.922 163.19 123.255 164.074 123.214 164.098L123.212 164.095Z" fill="#647A84"/>
<path d="M108.616 141.687C108.631 141.672 108.867 141.96 109.278 142.497C109.689 143.033 110.273 143.821 110.986 144.804C112.412 146.77 114.344 149.521 116.412 152.623C118.481 155.725 120.295 158.59 121.58 160.685C122.222 161.733 122.734 162.588 123.08 163.184C123.425 163.78 123.607 164.119 123.592 164.134C123.574 164.149 123.359 163.84 122.983 163.268C122.577 162.644 122.047 161.823 121.407 160.837C120.08 158.782 118.24 155.946 116.174 152.848C114.108 149.749 112.204 146.974 110.824 144.969C110.161 144.001 109.61 143.201 109.192 142.589C108.808 142.023 108.605 141.705 108.621 141.687H108.616Z" fill="#647A84"/>
<path d="M118.379 157.823C115.765 155.353 112.105 154.514 108.9 155.653C108.083 155.943 107.179 156.531 107.098 157.532C107.017 158.536 107.814 159.321 108.578 159.768C111.76 161.635 115.892 160.921 118.491 158.062" fill="#7687C3"/>
<path d="M110.928 157.487C110.923 157.463 111.11 157.397 111.458 157.298C111.631 157.244 111.844 157.19 112.098 157.157C112.349 157.121 112.636 157.058 112.956 157.055C113.593 157.001 114.359 157.037 115.197 157.172C116.032 157.328 116.94 157.592 117.854 158.008C118.762 158.44 119.577 158.982 120.278 159.546C120.968 160.127 121.547 160.718 121.981 161.272C122.212 161.533 122.384 161.808 122.547 162.039C122.712 162.267 122.836 162.48 122.932 162.656C123.128 163.007 123.227 163.208 123.212 163.223C123.163 163.265 122.727 162.489 121.828 161.455C121.384 160.933 120.803 160.376 120.12 159.824C119.427 159.291 118.631 158.773 117.745 158.35C116.854 157.942 115.971 157.676 115.159 157.505C114.341 157.358 113.595 157.295 112.968 157.316C111.714 157.343 110.945 157.559 110.935 157.49L110.928 157.487Z" fill="#647A84"/>
<path d="M152.675 60.1753L150.546 62.2761L149.51 61.7307L149.297 60.6938C149.297 60.6938 151.584 58.7009 151.497 58.596C151.289 58.3382 151 58.2184 150.711 58.1704C150.165 58.0775 149.612 58.2723 149.168 58.6589L148.764 59.0125C148.018 59.6659 147.632 60.7597 147.792 61.8416C147.8 61.9015 147.807 61.9345 147.807 61.9345L141.495 68.126C140.516 67.7394 139.429 68.2909 139 69.4267C138.544 70.6374 139.005 72.0549 140.031 72.5944C141.056 73.1338 142.257 72.5884 142.713 71.3776C142.899 70.8892 142.929 70.3677 142.838 69.8822L149.079 63.6937C149.32 63.9664 149.65 64.0653 149.977 64.0803C150.609 64.1072 151.218 63.7926 151.67 63.2711L152.198 62.6627C153.104 61.5599 152.673 60.1753 152.673 60.1753H152.675ZM140.483 71.4076C140.013 71.1619 139.802 70.5115 140.011 69.9571C140.219 69.4027 140.769 69.154 141.239 69.3997C141.708 69.6454 141.919 70.2958 141.711 70.8502C141.503 71.4046 140.952 71.6534 140.483 71.4076Z" fill="#7687C3"/>
<path d="M162.233 74.4704C161.972 74.4974 159.726 74.7192 155.434 75.1417L155.459 75.1267C154.244 76.832 152.429 78.5911 149.998 79.6161C148.787 80.1195 147.437 80.4462 146.005 80.4762C144.576 80.4881 143.074 80.2574 141.599 79.652C140.127 79.0556 138.688 78.1026 137.427 76.808C136.166 75.5163 135.079 73.88 134.31 71.998C133.539 70.119 133.089 67.9942 133.049 65.8094C133.029 65.5367 133.041 65.264 133.056 64.9883C133.069 64.7126 133.079 64.4399 133.092 64.1642C133.092 63.8885 133.15 63.6157 133.178 63.343C133.214 63.0703 133.249 62.7946 133.285 62.5189C133.333 62.2462 133.399 61.9794 133.455 61.7067C133.518 61.437 133.564 61.1613 133.643 60.8976C133.724 60.6338 133.805 60.3701 133.889 60.1034L134.013 59.7048C134.054 59.5729 134.115 59.4501 134.163 59.3212C134.927 57.3283 136.051 55.5721 137.396 54.1786C138.742 52.785 140.31 51.7571 141.947 51.1517C143.584 50.5404 145.287 50.3606 146.904 50.5374C148.523 50.7142 150.061 51.2536 151.419 52.0628C154.142 53.6841 156.142 56.2974 157.2 59.0245C157.34 59.3632 157.482 59.6958 157.576 60.0435C157.68 60.3881 157.789 60.7237 157.886 61.0594C158.025 61.7487 158.208 62.408 158.266 63.0733C158.304 63.403 158.358 63.7266 158.383 64.0473C158.396 64.368 158.408 64.6856 158.421 64.9943C158.426 65.1501 158.434 65.303 158.439 65.4558C158.439 65.6087 158.429 65.7585 158.424 65.9083C158.411 66.205 158.401 66.4987 158.388 66.7834L158.383 66.7565C160.792 71.5874 162.086 74.1857 162.228 74.4704C162.083 74.1887 160.766 71.6054 158.317 66.8044L158.312 66.7924V66.7774C158.322 66.4927 158.335 66.202 158.345 65.9053C158.35 65.7585 158.358 65.6087 158.36 65.4558C158.353 65.306 158.348 65.1531 158.34 64.9973C158.327 64.6886 158.312 64.3769 158.299 64.0563C158.274 63.7386 158.221 63.4179 158.183 63.0913C158.124 62.432 157.939 61.7786 157.799 61.0924C157.703 60.7597 157.594 60.4241 157.49 60.0824C157.396 59.7348 157.254 59.4081 157.114 59.0725C156.056 56.3693 154.068 53.783 151.368 52.1827C150.02 51.3855 148.498 50.852 146.894 50.6812C145.292 50.5074 143.607 50.6872 141.988 51.2926C140.368 51.895 138.815 52.9109 137.485 54.2925C136.153 55.671 135.044 57.4092 134.285 59.3811C134.237 59.51 134.176 59.6299 134.135 59.7618L134.013 60.1543C133.932 60.4151 133.851 60.6788 133.77 60.9395C133.691 61.2003 133.648 61.476 133.584 61.7427C133.529 62.0124 133.463 62.2761 133.414 62.5459C133.379 62.8186 133.343 63.0913 133.308 63.361C133.28 63.6337 133.221 63.9004 133.221 64.1762C133.209 64.4489 133.199 64.7216 133.186 64.9913C133.173 65.264 133.158 65.5337 133.178 65.8035C133.219 67.9672 133.661 70.071 134.424 71.9291C135.186 73.7931 136.257 75.4114 137.506 76.6941C138.754 77.9798 140.176 78.9238 141.635 79.5172C143.094 80.1165 144.584 80.3503 146 80.3443C147.419 80.3203 148.759 79.9997 149.962 79.5052C152.376 78.4952 154.185 76.757 155.401 75.0698L155.411 75.0548H155.426C159.721 74.6832 161.969 74.4884 162.231 74.4674L162.233 74.4704Z" fill="#647A84"/>
<path d="M221.411 86.6437H125.25C123.207 86.6437 121.552 88.5987 121.552 91.0102V163.142C121.552 165.553 123.207 167.508 125.25 167.508H221.411C223.454 167.508 225.109 165.553 225.109 163.142V91.0102C225.109 88.5987 223.454 86.6437 221.411 86.6437Z" fill="#647A84"/>
<path d="M117.367 161.527H229.563V163.268C229.563 166.211 227.541 168.602 225.046 168.602H121.882C119.389 168.602 117.364 166.214 117.364 163.268V161.527H117.367Z" fill="#647A84"/>
<path d="M222.183 89.8594H124.476V158.146H222.183V89.8594Z" fill="#F5F5F5"/>
<path d="M163.266 161.527C163.266 161.527 163.302 161.527 163.373 161.524C163.451 161.524 163.56 161.524 163.7 161.521C163.997 161.521 164.426 161.515 164.977 161.512C166.098 161.506 167.713 161.5 169.71 161.488C173.74 161.479 179.316 161.464 185.539 161.449H185.656L185.598 161.569C185.4 161.97 185.184 162.405 184.968 162.839C184.743 163.295 184.519 163.75 184.303 164.182L184.283 164.221H184.245C175.636 164.203 168.284 164.185 164.654 164.179H164.637L164.629 164.161C164.182 163.304 163.84 162.644 163.604 162.192C163.492 161.976 163.406 161.811 163.345 161.691C163.286 161.581 163.261 161.527 163.261 161.527C163.261 161.527 163.297 161.587 163.357 161.7C163.423 161.817 163.512 161.985 163.632 162.201C163.873 162.641 164.223 163.286 164.677 164.125L164.652 164.107C168.281 164.098 175.634 164.083 184.243 164.065L184.184 164.104C184.4 163.669 184.623 163.217 184.849 162.761C185.065 162.327 185.278 161.892 185.479 161.491L185.537 161.611C179.339 161.596 173.786 161.581 169.773 161.572C167.766 161.563 166.144 161.554 165.017 161.548C164.459 161.545 164.025 161.542 163.72 161.539C163.576 161.539 163.464 161.539 163.38 161.536C163.304 161.536 163.261 161.533 163.261 161.533L163.266 161.527Z" fill="#647A84"/>
<path fill-rule="evenodd" clip-rule="evenodd" d="M160.231 102.56C160.411 102.275 160.619 102.024 160.852 101.811L160.705 100.855L161.956 100.226L162.439 101.014C162.731 100.963 163.028 100.96 163.327 101.002L163.794 100.202L165.058 100.801L164.928 101.76C165.17 101.973 165.383 102.218 165.563 102.494L166.373 102.32L166.906 103.798L166.238 104.367C166.281 104.709 166.284 105.063 166.248 105.416L166.923 105.968L166.416 107.46L165.604 107.307C165.423 107.592 165.215 107.844 164.982 108.056L165.129 109.012L163.878 109.642L163.396 108.854C163.106 108.905 162.807 108.908 162.507 108.866L162.04 109.666L160.776 109.066L160.906 108.107C160.665 107.895 160.451 107.649 160.271 107.373L159.462 107.547L158.929 106.069L159.596 105.5C159.553 105.158 159.55 104.805 159.586 104.451L158.911 103.9L159.418 102.407L160.231 102.56ZM161.586 104.22C161.286 105.104 161.647 106.108 162.396 106.462C163.144 106.816 163.994 106.387 164.294 105.506C164.593 104.622 164.231 103.618 163.484 103.264C162.736 102.911 161.885 103.339 161.586 104.22Z" fill="#E0E0E0"/>
<path fill-rule="evenodd" clip-rule="evenodd" d="M155.157 133.554C155.677 132.73 156.284 132.004 156.957 131.384L156.528 128.615L160.154 126.787L161.55 129.068C162.393 128.924 163.256 128.909 164.121 129.035L165.477 126.721L169.136 128.456L168.758 131.234C169.456 131.849 170.07 132.568 170.596 133.359L172.941 132.853L174.489 137.135L172.558 138.783C172.679 139.778 172.692 140.797 172.586 141.819L174.545 143.42L173.075 147.741L170.723 147.294C170.202 148.119 169.596 148.844 168.923 149.464L169.352 152.233L165.725 154.061L164.329 151.781C163.487 151.925 162.624 151.94 161.758 151.814L160.403 154.127L156.743 152.392L157.122 149.614C156.424 149 155.809 148.283 155.284 147.489L152.939 147.996L151.391 143.713L153.322 142.065C153.2 141.07 153.188 140.051 153.294 139.029L151.335 137.429L152.804 133.107L155.157 133.554ZM159.081 138.367C158.21 140.926 159.261 143.836 161.429 144.864C163.596 145.892 166.06 144.651 166.931 142.092C167.801 139.533 166.751 136.623 164.583 135.595C162.416 134.567 159.951 135.807 159.081 138.367Z" fill="#F5F5F5"/>
<path d="M139 141.984C139 141.984 139.049 141.741 139.259 141.373C139.467 141.013 139.879 140.525 140.538 140.3C140.863 140.192 141.244 140.147 141.637 140.243C142.028 140.339 142.437 140.543 142.769 140.905C142.939 141.079 143.089 141.292 143.213 141.529C143.34 141.765 143.437 142.029 143.498 142.311C143.627 142.871 143.594 143.5 143.404 144.076C143.206 144.645 142.861 145.128 142.437 145.427C142.229 145.583 142.003 145.694 141.774 145.76C141.546 145.832 141.313 145.862 141.087 145.847C140.632 145.835 140.219 145.649 139.881 145.397C139.541 145.143 139.292 144.801 139.12 144.456C138.775 143.755 138.764 143.066 138.825 142.637C138.889 142.2 138.995 141.984 138.995 141.984C139.011 141.99 138.922 142.215 138.876 142.646C138.83 143.069 138.858 143.734 139.201 144.4C139.371 144.726 139.615 145.05 139.939 145.287C140.264 145.52 140.66 145.691 141.089 145.7C141.302 145.712 141.523 145.679 141.739 145.613C141.955 145.547 142.168 145.442 142.366 145.296C142.764 145.011 143.089 144.555 143.277 144.016C143.457 143.473 143.49 142.88 143.368 142.35C143.312 142.083 143.221 141.831 143.104 141.606C142.988 141.382 142.848 141.178 142.686 141.013C142.371 140.668 141.985 140.468 141.612 140.372C141.239 140.276 140.873 140.312 140.559 140.408C139.924 140.608 139.513 141.067 139.297 141.409C139.077 141.759 139.011 141.993 138.995 141.984H139Z" fill="#647A84"/>
<path d="M136.83 139.323C136.83 139.323 136.803 139.323 136.749 139.314C136.688 139.305 136.607 139.29 136.503 139.272C136.277 139.233 135.95 139.176 135.528 139.101L135.551 139.086C135.346 139.7 135.077 140.507 134.749 141.481L134.737 141.433C135.067 141.699 135.432 141.996 135.823 142.314L135.843 142.329V142.356C135.787 142.874 135.787 143.438 135.861 144.022L135.866 144.052L135.843 144.07C135.511 144.355 135.15 144.663 134.777 144.987L134.792 144.918C135.064 145.664 135.351 146.455 135.653 147.286L135.594 147.25C135.995 147.163 136.437 147.067 136.891 146.968L136.924 146.962L136.945 146.992C137.214 147.399 137.556 147.807 137.952 148.152L137.98 148.176L137.975 148.218C137.912 148.694 137.841 149.218 137.767 149.755L137.731 149.677C138.368 149.977 139.054 150.303 139.757 150.636L139.683 150.663C139.917 150.264 140.173 149.827 140.432 149.38L140.455 149.341L140.493 149.347C140.929 149.41 141.417 149.41 141.899 149.326L141.937 149.32L141.96 149.359C142.201 149.755 142.467 150.186 142.734 150.621L142.655 150.594C143.29 150.273 143.972 149.929 144.66 149.581L144.62 149.668C144.543 149.186 144.465 148.661 144.383 148.137L144.376 148.089L144.409 148.059C144.762 147.735 145.102 147.33 145.391 146.875L145.416 146.836L145.457 146.845C145.894 146.929 146.328 147.01 146.759 147.091L146.685 147.139C146.96 146.333 147.231 145.535 147.5 144.747L147.523 144.84C147.158 144.543 146.797 144.247 146.439 143.953L146.406 143.926L146.411 143.878C146.47 143.321 146.462 142.76 146.396 142.221L146.391 142.176L146.424 142.149C146.784 141.84 147.142 141.538 147.493 141.238L147.472 141.328C147.18 140.519 146.896 139.727 146.617 138.957L146.685 138.999C146.246 139.092 145.812 139.185 145.389 139.278L145.353 139.287L145.33 139.254C145.036 138.807 144.696 138.415 144.328 138.091L144.3 138.067L144.305 138.025C144.378 137.498 144.447 136.988 144.515 136.488L144.551 136.56C143.84 136.221 143.168 135.9 142.528 135.595L142.589 135.574C142.325 136.023 142.076 136.446 141.838 136.85L141.82 136.877H141.792C141.292 136.799 140.823 136.814 140.381 136.886H140.356L140.34 136.865C140.061 136.407 139.81 135.993 139.571 135.601L139.62 135.616C138.841 136.002 138.178 136.335 137.61 136.617L137.627 136.578C137.719 137.189 137.792 137.693 137.856 138.112V138.127L137.848 138.136C137.47 138.481 137.224 138.792 137.069 138.999C136.995 139.101 136.94 139.179 136.899 139.239C136.861 139.293 136.843 139.32 136.841 139.317C136.841 139.317 136.856 139.284 136.889 139.23C136.924 139.173 136.975 139.089 137.051 138.984C137.204 138.771 137.442 138.454 137.82 138.097L137.813 138.121C137.747 137.705 137.665 137.201 137.566 136.59L137.561 136.563L137.584 136.551C138.15 136.263 138.81 135.924 139.587 135.529L139.615 135.514L139.632 135.544C139.873 135.933 140.127 136.344 140.409 136.802L140.366 136.781C140.813 136.704 141.292 136.686 141.8 136.757L141.754 136.781C141.993 136.374 142.239 135.951 142.5 135.499L142.523 135.46L142.561 135.478C143.201 135.781 143.873 136.098 144.587 136.434L144.627 136.455L144.62 136.506C144.554 137.006 144.482 137.516 144.414 138.043L144.391 137.977C144.769 138.31 145.117 138.705 145.419 139.164L145.361 139.137C145.784 139.044 146.218 138.951 146.658 138.855L146.706 138.843L146.726 138.897C147.005 139.667 147.292 140.456 147.584 141.265L147.604 141.319L147.564 141.355C147.213 141.654 146.858 141.96 146.495 142.269L146.52 142.197C146.589 142.751 146.597 143.327 146.538 143.896L146.51 143.824C146.868 144.115 147.229 144.412 147.594 144.708L147.637 144.744L147.617 144.801C147.35 145.586 147.079 146.383 146.805 147.193L146.784 147.253L146.731 147.244C146.302 147.163 145.866 147.079 145.429 146.998L145.493 146.968C145.198 147.438 144.848 147.852 144.485 148.182L144.51 148.104C144.592 148.628 144.673 149.153 144.746 149.635L144.757 149.698L144.708 149.722C144.018 150.07 143.338 150.411 142.701 150.732L142.653 150.756L142.622 150.705C142.356 150.27 142.092 149.839 141.851 149.443L141.911 149.473C141.417 149.557 140.919 149.557 140.472 149.491L140.533 149.458C140.274 149.902 140.016 150.339 139.782 150.738L139.754 150.786L139.709 150.765C139.005 150.429 138.32 150.106 137.686 149.803L137.643 149.782L137.65 149.725C137.724 149.192 137.795 148.664 137.861 148.188L137.884 148.254C137.48 147.897 137.132 147.48 136.858 147.064L136.912 147.088C136.457 147.184 136.016 147.28 135.615 147.363L135.574 147.372L135.559 147.327C135.259 146.494 134.975 145.703 134.706 144.957L134.691 144.915L134.721 144.888C135.097 144.57 135.457 144.262 135.792 143.98L135.775 144.031C135.704 143.438 135.706 142.865 135.764 142.338L135.782 142.383C135.394 142.062 135.028 141.762 134.701 141.493L134.678 141.475L134.688 141.445C135.023 140.474 135.303 139.67 135.513 139.059L135.521 139.041H135.539C135.957 139.131 136.28 139.194 136.503 139.242C136.61 139.266 136.691 139.281 136.752 139.296C136.808 139.308 136.836 139.317 136.838 139.317L136.83 139.323Z" fill="#647A84"/>
<path fill-rule="evenodd" clip-rule="evenodd" d="M131.874 107.697C132.287 106.366 132.848 105.122 133.528 103.996L132.041 100.534L136.226 96.4345L138.833 98.799C139.899 98.2177 141.036 97.7981 142.219 97.5613L143.239 93.8752L148.652 94.4716L149.079 98.3166C150.206 98.805 151.259 99.4674 152.213 100.271L155.145 98.5143L158.616 103.456L156.614 106.534C157.106 107.793 157.462 109.132 157.662 110.532L160.786 111.737L160.281 118.129L157.025 118.632C156.611 119.963 156.051 121.207 155.37 122.334L156.858 125.795L152.673 129.895L150.066 127.53C149 128.111 147.863 128.531 146.68 128.768L145.66 132.457L140.247 131.861L139.82 128.016C138.693 127.527 137.64 126.865 136.686 126.062L133.754 127.818L130.282 122.876L132.285 119.798C131.793 118.539 131.437 117.197 131.237 115.8L128.112 114.596L128.617 108.203L131.876 107.7L131.874 107.697ZM138.663 112.237C138.363 116.025 140.721 119.382 143.929 119.735C147.137 120.089 149.98 117.305 150.279 113.517C150.579 109.729 148.221 106.372 145.013 106.019C141.805 105.665 138.962 108.449 138.663 112.237Z" fill="#E0E0E0"/>
<path d="M225.109 161.527C225.109 161.569 201.925 161.602 173.334 161.602C144.744 161.602 121.554 161.569 121.554 161.527C121.554 161.485 144.734 161.452 173.334 161.452C201.935 161.452 225.109 161.485 225.109 161.527Z" fill="#647A84"/>
<path d="M169.411 69.6514C167.814 70.4786 166.885 72.5105 166.535 74.5304C166.185 76.5503 166.302 78.6331 166.149 80.6859C165.997 82.7388 165.522 84.8816 164.253 86.2961C163.071 87.6147 161.332 88.1512 160.325 89.6556C159.578 90.7734 159.358 92.3528 159.764 93.6954C160.17 95.038 161.187 96.0959 162.365 96.4016C161.568 97.891 161.967 99.9708 162.987 101.256C164.005 102.542 165.502 103.157 166.977 103.42C169.57 103.888 172.337 103.372 174.527 101.667C176.717 99.9618 178.25 97.0009 178.245 93.9052" fill="#647A84"/>
<path d="M162.495 100.094C162.495 100.094 162.35 99.8809 162.213 99.4254C162.076 98.9729 161.979 98.2566 162.111 97.4025C162.177 96.977 162.297 96.5214 162.477 96.0599C162.665 95.6014 162.911 95.1399 163.21 94.6933C163.804 93.7913 164.604 92.9611 165.406 92.0711C166.208 91.175 166.944 90.2849 167.54 89.4039C168.144 88.5318 168.598 87.6597 168.905 86.8925C169.213 86.1223 169.378 85.457 169.459 84.9895C169.507 84.7587 169.52 84.5729 169.543 84.45C169.56 84.3271 169.573 84.2612 169.578 84.2612C169.583 84.2612 169.578 84.3271 169.568 84.453C169.553 84.5789 169.548 84.7647 169.507 85.0014C169.438 85.475 169.286 86.1522 168.984 86.9374C168.682 87.7196 168.233 88.6067 167.629 89.4908C167.032 90.3838 166.294 91.2829 165.489 92.182C164.682 93.078 163.888 93.8992 163.299 94.7832C163.002 95.2208 162.756 95.6733 162.568 96.1199C162.385 96.5694 162.266 97.0129 162.195 97.4295C162.055 98.2626 162.137 98.9639 162.256 99.4164C162.378 99.8689 162.505 100.094 162.489 100.103L162.495 100.094Z" fill="#647A84"/>
<path d="M188.499 76.4214C188.499 79.1905 189.58 81.7289 190.555 82.6639C191.93 83.9855 193.95 84.6238 195.283 85.0614C197.222 85.6997 198.846 87.7046 199.09 90.0662C199.331 92.4247 198.026 94.9481 196.075 95.5415C197.3 97.0189 196.935 99.5603 195.927 101.251C194.016 104.454 190.202 105.686 187.037 104.502C183.872 103.318 181.448 100.007 180.504 96.2487" fill="#647A84"/>
<path d="M193.323 103.699C193.316 103.675 193.633 103.675 194.07 103.312C194.283 103.133 194.514 102.854 194.694 102.467C194.879 102.087 195.014 101.595 195.029 101.041C195.042 100.489 194.902 99.8839 194.636 99.3145C194.369 98.7421 193.976 98.2057 193.496 97.7352C192.537 96.7792 191.23 96.1828 189.966 95.3227C189.336 94.8851 188.753 94.3817 188.288 93.7673C188.057 93.4616 187.857 93.132 187.702 92.7813C187.547 92.4307 187.44 92.0591 187.374 91.6905C187.24 90.9502 187.253 90.231 187.293 89.5717C187.336 88.9094 187.407 88.298 187.456 87.7406C187.56 86.6257 187.547 85.7117 187.42 85.1033C187.385 84.9535 187.354 84.8216 187.329 84.7018C187.301 84.5879 187.26 84.495 187.237 84.417C187.187 84.2642 187.161 84.1803 187.164 84.1803C187.169 84.1803 187.199 84.2552 187.26 84.4051C187.288 84.48 187.331 84.5729 187.364 84.6868C187.395 84.8066 187.43 84.9385 187.468 85.0884C187.613 85.7027 187.638 86.6287 187.544 87.7496C187.501 88.31 187.435 88.9214 187.397 89.5777C187.362 90.234 187.354 90.9412 187.489 91.6605C187.618 92.3768 187.92 93.081 188.382 93.6684C188.834 94.2648 189.41 94.7623 190.032 95.1908C191.28 96.0419 192.598 96.6443 193.575 97.6243C194.062 98.1068 194.463 98.6582 194.732 99.2486C195.001 99.839 195.138 100.462 195.12 101.038C195.1 101.61 194.953 102.114 194.757 102.503C194.565 102.896 194.323 103.174 194.1 103.354C193.879 103.54 193.671 103.606 193.539 103.657C193.4 103.687 193.326 103.699 193.326 103.696L193.323 103.699Z" fill="#647A84"/>
<path d="M197.892 94.4596C197.869 94.4506 198.095 94.2318 198.128 93.6894C198.138 93.4257 198.095 93.093 197.948 92.7544C197.803 92.4187 197.569 92.0651 197.229 91.8163C196.884 91.5676 196.453 91.4118 195.983 91.3189C195.511 91.223 194.996 91.187 194.455 91.0881C193.374 90.8903 192.222 90.3868 191.174 89.5537C190.128 88.7176 189.301 87.6387 188.747 86.5239C188.189 85.409 187.897 84.2792 187.753 83.3232C187.608 82.3612 187.616 81.567 187.649 81.0246C187.666 80.7519 187.687 80.5451 187.709 80.4042C187.727 80.2634 187.74 80.1885 187.745 80.1915C187.76 80.1915 187.717 80.4912 187.697 81.0306C187.679 81.57 187.684 82.3582 187.839 83.3052C187.994 84.2492 188.293 85.3611 188.846 86.4549C189.395 87.5488 190.212 88.6067 191.242 89.4308C192.275 90.249 193.41 90.7495 194.473 90.9532C195.006 91.0551 195.521 91.0941 196.001 91.199C196.478 91.2979 196.922 91.4627 197.278 91.7294C197.635 91.9962 197.869 92.3678 198.014 92.7214C198.161 93.075 198.199 93.4227 198.181 93.6954C198.161 93.9711 198.077 94.1689 198.014 94.2918C197.981 94.3517 197.948 94.3907 197.927 94.4206C197.907 94.4476 197.897 94.4626 197.894 94.4596H197.892Z" fill="#647A84"/>
<path d="M170.55 108.887C170.885 104.748 171.172 100.384 171.172 100.384C171.172 100.384 166.733 98.9759 166.378 91.9122C166.038 85.1783 168.241 69.9691 168.241 69.9691C174.997 67.5956 182.519 70.5715 186.641 77.2515L183.458 110.811C183.088 114.706 179.958 117.434 176.428 116.936C172.862 116.433 170.233 112.83 170.553 108.887H170.55Z" fill="#B78876"/>
<path d="M168.913 82.1274C168.86 82.598 169.152 83.0385 169.565 83.1104C169.979 83.1853 170.357 82.8677 170.411 82.3972C170.464 81.9267 170.172 81.4861 169.758 81.4112C169.345 81.3363 168.966 81.6569 168.913 82.1245V82.1274Z" fill="#647A84"/>
<path d="M167.771 80.9856C167.855 81.1115 168.469 80.68 169.281 80.7759C170.093 80.8598 170.649 81.4232 170.748 81.3153C170.796 81.2673 170.718 81.0486 170.477 80.7938C170.24 80.5421 169.822 80.2754 169.314 80.2184C168.807 80.1615 168.362 80.3323 168.101 80.5301C167.832 80.7279 167.73 80.9287 167.771 80.9856Z" fill="#647A84"/>
<path d="M177.217 83.2633C177.164 83.7338 177.456 84.1743 177.87 84.2462C178.283 84.3212 178.662 84.0035 178.715 83.533C178.768 83.0625 178.476 82.6219 178.063 82.547C177.649 82.4721 177.271 82.7928 177.217 83.2603V83.2633Z" fill="#647A84"/>
<path d="M176.223 82.3192C176.306 82.4451 176.92 82.0136 177.733 82.1095C178.545 82.1934 179.101 82.7568 179.2 82.6489C179.248 82.601 179.169 82.3822 178.928 82.1274C178.692 81.8757 178.273 81.609 177.766 81.552C177.258 81.4951 176.814 81.6659 176.552 81.8637C176.283 82.0615 176.182 82.2623 176.223 82.3192Z" fill="#647A84"/>
<path d="M172.679 89.0952C172.687 89.0412 172.192 88.8794 171.383 88.6606C171.177 88.6097 170.984 88.5408 170.964 88.3669C170.931 88.1841 171.037 87.9294 171.162 87.6567C171.405 87.0873 171.662 86.4879 171.931 85.8616C173.004 83.3052 173.804 81.1924 173.715 81.1415C173.626 81.0905 172.687 83.1224 171.614 85.6817C171.355 86.3141 171.106 86.9135 170.87 87.4919C170.768 87.7616 170.606 88.0613 170.682 88.4419C170.723 88.6307 170.865 88.7835 170.994 88.8404C171.124 88.9034 171.24 88.9214 171.342 88.9393C172.162 89.0862 172.672 89.1521 172.679 89.0982V89.0952Z" fill="#647A84"/>
<path d="M171.172 100.384C171.172 100.384 175.108 101.146 179.266 98.817C179.266 98.817 176.953 103.372 171.114 102.036L171.172 100.384Z" fill="#AA6550"/>
<path d="M172.829 91.4477C173.159 91.0252 173.692 90.8334 174.195 90.9592C174.545 91.0461 174.882 91.2859 175.07 91.6515C175.256 92.0141 175.261 92.5026 175.04 92.8023C174.791 93.141 174.324 93.1709 173.948 92.9971C173.57 92.8233 173.263 92.4816 172.971 92.143C172.89 92.0501 172.809 91.9512 172.763 91.8313C172.718 91.7114 172.718 91.5616 172.794 91.4747" fill="#AA6550"/>
<path d="M175.014 90.0362C174.882 90.0122 174.794 91.0521 173.979 91.7055C173.164 92.3588 172.233 92.134 172.212 92.2779C172.195 92.3408 172.405 92.5056 172.801 92.5626C173.19 92.6225 173.771 92.5416 174.271 92.143C174.768 91.7444 175.017 91.16 175.083 90.7375C175.154 90.3059 175.075 90.0362 175.014 90.0362Z" fill="#647A84"/>
<path d="M183.836 84.6718C184.479 84.5999 185.141 84.6988 185.72 85.0344C186.298 85.3701 186.783 85.9604 186.984 86.6827C187.187 87.4079 187.093 88.2171 186.814 88.9064C186.537 89.5957 186.088 90.1711 185.585 90.6506C185.225 90.9952 184.821 91.3009 184.367 91.4148C183.913 91.5256 183.397 91.4148 183.075 91.0222" fill="#B78876"/>
<path d="M183.809 89.221C183.735 89.239 183.971 89.7215 184.562 89.6046C184.847 89.5507 185.141 89.293 185.334 88.9543C185.529 88.6067 185.669 88.2201 185.75 87.7556C185.829 87.2971 185.781 86.7936 185.593 86.416C185.415 86.0354 185.095 85.7836 184.814 85.7417C184.222 85.6578 183.999 86.1193 184.065 86.1433C184.108 86.2062 184.359 85.9814 184.737 86.1373C185.103 86.2601 185.418 86.9075 185.273 87.6507C185.138 88.4089 184.831 89.0802 184.471 89.2151C184.095 89.3889 183.852 89.1641 183.806 89.221H183.809Z" fill="#AA6550"/>
<path d="M171.086 72.945C170.218 75.3275 168.36 77.1706 166.225 77.779C166.098 76.0618 166.015 74.3236 166.253 72.6244C166.492 70.9251 167.078 69.2469 168.126 68.0511C169.177 66.8554 170.733 66.211 172.144 66.6546" fill="#647A84"/>
<path d="M171.492 69.7923C170.758 71.968 171.06 74.5843 172.258 76.4514C173.456 78.3184 175.507 79.3673 177.479 79.1216C177.865 79.0736 178.271 78.9837 178.631 79.1485C179.019 79.3254 179.273 79.7539 179.504 80.1615C180.443 81.8188 181.436 83.539 182.913 84.498C184.392 85.457 186.509 85.3641 187.499 83.7488C187.981 82.9636 188.121 81.9656 188.232 81.0036C188.608 77.776 188.76 74.3086 187.458 71.4376C186.491 69.3038 184.791 67.7155 182.908 66.7535C181.027 65.7915 178.966 65.4079 176.92 65.261C175.73 65.1741 174.499 65.1741 173.398 65.7046C172.296 66.235 171.342 67.4188 171.278 68.8243" fill="#647A84"/>
<path d="M187.973 81.9147C187.973 81.9147 187.945 81.8337 187.902 81.6779C187.862 81.5191 187.793 81.2913 187.704 80.9976C187.519 80.4132 187.209 79.5831 186.702 78.6421C186.192 77.707 185.471 76.6671 184.501 75.7411C183.534 74.8061 182.306 74.0569 180.976 73.3975C179.644 72.7382 178.344 72.1958 177.205 71.5664C176.065 70.9431 175.093 70.2358 174.36 69.5166C173.629 68.7943 173.136 68.0811 172.852 67.5506C172.71 67.2839 172.608 67.0741 172.55 66.9213C172.487 66.7744 172.456 66.6935 172.461 66.6935C172.466 66.6935 172.504 66.7655 172.573 66.9093C172.639 67.0561 172.748 67.2599 172.893 67.5207C173.187 68.0361 173.685 68.7314 174.418 69.4357C175.151 70.1369 176.118 70.8292 177.255 71.4436C178.39 72.0639 179.692 72.6004 181.027 73.2627C182.359 73.922 183.603 74.6862 184.575 75.6362C185.552 76.5772 186.273 77.6351 186.778 78.5851C187.281 79.5411 187.58 80.3863 187.75 80.9766C187.834 81.2733 187.895 81.5071 187.928 81.6689C187.963 81.8277 187.978 81.9117 187.976 81.9147H187.973Z" fill="#647A84"/>
<path d="M186.143 81.5341C186.143 81.5341 186.105 81.4681 186.044 81.3363C185.981 81.2074 185.885 81.0156 185.742 80.7848C185.463 80.3233 184.986 79.706 184.281 79.1186C183.58 78.5222 182.654 77.9858 181.6 77.4583C181.075 77.1916 180.519 76.9159 179.956 76.5982C179.392 76.2805 178.819 75.9239 178.25 75.5223C177.111 74.7192 176.103 73.7991 175.294 72.8311C174.481 71.8661 173.872 70.8622 173.448 69.9661C173.02 69.0701 172.778 68.2849 172.636 67.7364C172.57 67.4607 172.522 67.245 172.497 67.0981C172.469 66.9513 172.459 66.8733 172.461 66.8703C172.466 66.8703 172.487 66.9453 172.52 67.0891C172.553 67.236 172.608 67.4457 172.679 67.7185C172.834 68.2579 173.088 69.0311 173.522 69.9122C173.954 70.7933 174.565 71.7792 175.372 72.7322C176.179 73.6852 177.179 74.5963 178.311 75.3935C178.877 75.792 179.446 76.1457 180.007 76.4663C180.568 76.784 181.121 77.0597 181.646 77.3324C182.697 77.8689 183.631 78.4203 184.331 79.0347C185.037 79.64 185.512 80.2754 185.781 80.7519C185.918 80.9886 186.009 81.1864 186.065 81.3213C186.121 81.4591 186.146 81.5311 186.143 81.5341Z" fill="#647A84"/>
<path d="M166.246 80.5391C166.246 80.5391 166.223 80.4852 166.187 80.3803C166.154 80.2724 166.104 80.1165 166.048 79.9098C165.954 79.4932 165.822 78.8788 165.794 78.0996C165.766 77.3265 165.817 76.3884 166.055 75.3965C166.294 74.4105 166.687 73.3526 167.314 72.4206C167.616 71.9441 167.977 71.5425 168.334 71.1769C168.702 70.8232 169.081 70.5205 169.441 70.2418C170.167 69.6844 170.814 69.1749 171.273 68.6325C171.74 68.0991 172.025 67.5656 172.169 67.173C172.317 66.7804 172.35 66.5437 172.362 66.5467C172.367 66.5467 172.36 66.6066 172.339 66.7175C172.319 66.8284 172.281 66.9932 172.212 67.194C172.078 67.5986 171.801 68.153 171.334 68.7044C170.875 69.2649 170.223 69.7923 169.504 70.3527C169.147 70.6374 168.771 70.9371 168.411 71.2877C168.06 71.6474 167.708 72.043 167.411 72.5105C166.794 73.4245 166.403 74.4614 166.164 75.4324C165.923 76.4064 165.865 77.3294 165.88 78.0937C165.898 78.8638 166.015 79.4722 166.093 79.8918C166.142 80.0866 166.18 80.2454 166.21 80.3683C166.236 80.4792 166.248 80.5361 166.243 80.5391H166.246Z" fill="#647A84"/>
<path d="M180.791 94.4057C179.415 94.4057 178.037 93.8512 177.019 92.7724L177.182 92.5596C178.946 94.4326 181.854 94.6514 183.806 93.0541C185.755 91.4567 186.603 88.1632 185.735 85.5559L185.958 85.451C186.867 88.1751 185.981 91.6186 183.943 93.2878C183.029 94.037 181.91 94.4057 180.791 94.4057Z" fill="#7687C3"/>
<path d="M178.829 93.1859C178.829 93.9471 178.306 94.5675 177.659 94.5675C177.012 94.5675 176.489 93.9501 176.489 93.1859C176.489 92.4217 177.012 91.8044 177.659 91.8044C178.306 91.8044 178.829 92.4217 178.829 93.1859Z" fill="#7687C3"/>
<path d="M190.523 86.7266C190.786 84.1918 189.259 81.8849 187.112 81.5741C184.966 81.2633 183.012 83.0663 182.749 85.6012C182.486 88.136 184.012 90.4429 186.159 90.7537C188.306 91.0645 190.26 89.2615 190.523 86.7266Z" fill="#7687C3"/>
<path d="M186.004 85.5229C185.979 85.5199 185.989 85.1003 186.027 84.3511C186.039 83.9705 186.055 83.512 186.072 82.9816C186.078 82.4481 186.093 81.8397 186.072 81.1684C186.072 80.8328 186.052 80.4822 186.037 80.1165C186.027 79.7509 185.991 79.3733 185.958 78.9807C185.933 78.5881 185.869 78.1896 185.826 77.773C185.793 77.5662 185.76 77.3594 185.727 77.1466C185.697 76.9339 185.659 76.7211 185.611 76.5083C185.278 74.7971 184.654 72.963 183.56 71.4106C182.468 69.8552 181.04 68.8123 179.656 68.18C178.268 67.5387 176.933 67.23 175.811 67.0382C174.687 66.8524 173.766 66.7954 173.129 66.7445C172.492 66.7115 172.139 66.6786 172.139 66.6486C172.139 66.6186 172.492 66.5916 173.131 66.5707C173.771 66.5707 174.7 66.5797 175.842 66.7265C176.981 66.8793 178.344 67.1581 179.778 67.7964C181.207 68.4257 182.705 69.4986 183.847 71.1259C184.989 72.7472 185.626 74.6622 185.946 76.4184C185.991 76.6372 186.029 76.8559 186.057 77.0717C186.088 77.2875 186.121 77.5003 186.149 77.713C186.187 78.1356 186.245 78.5462 186.265 78.9448C186.291 79.3433 186.319 79.7269 186.321 80.0986C186.331 80.4702 186.341 80.8238 186.334 81.1625C186.334 81.8397 186.301 82.4511 186.275 82.9875C186.237 83.524 186.202 83.9855 186.166 84.3601C186.083 85.1093 186.024 85.5229 185.996 85.5199L186.004 85.5229Z" fill="#7687C3"/>
<g opacity="0.4">
<path d="M189.44 86.1672C189.44 87.9264 188.232 89.3499 186.745 89.3499C185.258 89.3499 184.05 87.9264 184.05 86.1672C184.05 84.4081 185.258 82.9846 186.745 82.9846C188.232 82.9846 189.44 84.4111 189.44 86.1672Z" fill="black"/>
</g>
<path d="M185.859 83.1973C185.859 83.1973 185.9 83.1674 185.979 83.1224C186.06 83.0805 186.184 83.0295 186.352 82.9906C186.679 82.9216 187.207 82.9186 187.75 83.2723C188.017 83.4461 188.283 83.7158 188.468 84.0844C188.659 84.45 188.76 84.9086 188.758 85.391C188.755 85.8705 188.628 86.383 188.359 86.8056C188.09 87.2281 187.679 87.5368 187.22 87.6657C186.763 87.7975 186.275 87.7496 185.872 87.5218C185.466 87.2941 185.161 86.9015 184.973 86.4759C184.786 86.0474 184.715 85.5799 184.743 85.1543C184.776 84.7257 184.913 84.3511 185.075 84.0455C185.405 83.4311 185.862 83.1134 186.192 83.0175C186.357 82.9636 186.491 82.9606 186.58 82.9666C186.669 82.9756 186.715 82.9846 186.715 82.9906C186.715 83.0115 186.524 82.9576 186.204 83.0745C185.89 83.1824 185.461 83.503 185.151 84.1024C184.999 84.3991 184.874 84.7617 184.847 85.1663C184.824 85.5709 184.895 86.0114 185.075 86.416C185.255 86.8176 185.545 87.1832 185.923 87.393C186.301 87.6027 186.755 87.6507 187.189 87.5248C187.621 87.402 188.009 87.1143 188.26 86.7187C188.514 86.3261 188.633 85.8436 188.641 85.391C188.648 84.9355 188.555 84.498 188.379 84.1503C188.209 83.7997 187.961 83.536 187.707 83.3652C187.194 83.0115 186.684 82.9995 186.359 83.0475C186.029 83.1044 185.862 83.2123 185.857 83.1943L185.859 83.1973Z" fill="#647A84"/>
<path d="M186.722 89.302C186.689 89.308 186.613 88.9753 186.6 88.5498C186.585 88.1272 186.636 87.7856 186.671 87.7885C186.707 87.7915 186.712 88.1302 186.727 88.5438C186.739 88.9573 186.76 89.293 186.724 89.302H186.722Z" fill="#647A84"/>
<path d="M188.209 88.6846C188.176 88.6996 188.052 88.4119 187.93 88.0403C187.808 87.6687 187.735 87.357 187.768 87.342C187.801 87.327 187.925 87.6147 188.047 87.9863C188.169 88.3579 188.242 88.6696 188.209 88.6846Z" fill="#647A84"/>
<path d="M189.212 87.3001C189.189 87.33 189.004 87.1772 188.798 86.9584C188.593 86.7396 188.448 86.5359 188.471 86.5059C188.494 86.4759 188.679 86.6288 188.885 86.8475C189.09 87.0663 189.235 87.2701 189.212 87.3001Z" fill="#647A84"/>
<path d="M189.283 85.3671C189.27 85.406 189.138 85.3851 188.984 85.3191C188.831 85.2532 188.714 85.1693 188.727 85.1303C188.74 85.0914 188.872 85.1123 189.027 85.1783C189.179 85.2442 189.296 85.3281 189.283 85.3671Z" fill="#647A84"/>
<path d="M184.961 88.5887C184.928 88.5767 184.999 88.2381 185.164 87.8575C185.329 87.4769 185.519 87.2131 185.547 87.2371C185.578 87.2611 185.435 87.5548 185.276 87.9264C185.116 88.295 184.994 88.6037 184.961 88.5887Z" fill="#647A84"/>
<path d="M184.159 86.9674C184.133 86.9374 184.288 86.7127 184.501 86.4669C184.715 86.2182 184.907 86.0444 184.933 86.0713C184.958 86.1013 184.803 86.3261 184.59 86.5718C184.377 86.8176 184.184 86.9944 184.159 86.9674Z" fill="#647A84"/>
<path d="M184.786 84.7617C184.796 84.8007 184.684 84.8696 184.542 84.9145C184.397 84.9595 184.276 84.9655 184.265 84.9235C184.258 84.8846 184.367 84.8156 184.509 84.7707C184.654 84.7257 184.776 84.7197 184.786 84.7617Z" fill="#647A84"/>
<path d="M205.27 110.061C205.016 108.368 204.455 107.448 204.039 106.966C203.645 106.513 203.267 106.043 202.798 105.707C202.229 105.296 201.455 104.79 200.96 104.664C200.349 104.508 200.199 103.567 200.712 103.3C201.224 103.034 202.92 103.414 204.551 104.832C206.181 106.249 205.359 102.662 205.077 101.346C204.795 100.034 204.09 95.9281 204.366 95.5175C204.77 94.9151 205.407 95.3257 205.661 96.6413C205.917 97.9749 206.914 101.856 207.498 101.667C208.072 101.481 206.567 94.8162 206.567 94.8162C206.567 94.8162 206.049 93.4466 206.716 93.2009C207.919 92.7574 209.077 99.9649 209.173 100.654C209.239 101.134 209.881 100.954 209.785 100.444C209.688 99.9199 208.15 93.8362 209.371 93.3687C210.308 93.0121 210.371 99.2906 211.285 100.36C212.201 101.43 210.823 95.5924 211.731 95.2957C212.069 95.1848 212.335 95.1579 212.714 98.6312C212.917 100.498 212.785 103.073 213.401 106.636" fill="#B78876"/>
<path d="M202.229 123.463L207.777 132.865L205.112 108.62L213.044 104.928C213.044 104.928 223.053 150.237 209.627 150.876C209.627 150.876 200.338 150.576 193.405 131.585L202.229 123.463Z" fill="#B78876"/>
<path d="M211.127 104.748C211.143 104.772 210.955 104.919 210.709 105.242C210.468 105.56 210.176 106.081 210.059 106.753L210.028 106.93L209.919 106.801C209.795 106.654 209.66 106.507 209.508 106.375C208.932 105.872 208.287 105.659 207.823 105.602C207.353 105.542 207.059 105.602 207.054 105.569C207.049 105.548 207.341 105.437 207.831 105.461C208.315 105.482 209.001 105.683 209.607 106.213C209.767 106.351 209.909 106.507 210.036 106.663L209.894 106.711C210.028 105.995 210.356 105.461 210.63 105.152C210.907 104.841 211.117 104.73 211.125 104.745L211.127 104.748Z" fill="#AA6550"/>
<path d="M198.242 143.066L191.529 133.008L189.786 143.294C189.08 147.459 189.443 151.781 190.831 155.701L191.697 158.146H160.611L161.388 154.88C161.827 150.876 161.238 146.695 161.342 140.962L160.479 134.498L155.777 158.149H141.952C141.952 158.149 149.541 121.44 154.294 114.176C160.287 105.018 170.758 106.225 170.758 106.225L177.174 118.099L183.438 107.394C183.438 107.394 194.204 104.691 202.61 121.779L207.107 130.881L205.019 112.141L214.752 109.489C214.752 109.489 218.267 127.899 218.036 137.758C217.83 146.563 214.655 151.184 210.257 151.637C203.343 152.35 198.245 143.066 198.245 143.066H198.242Z" fill="#7687C3"/>
<path d="M170.756 106.225L170.865 104.748C170.865 104.748 175.616 105.995 177.21 115.791C177.21 115.791 178.809 106.75 183.925 105.839L184.788 108.443L181.646 118.105L176.126 120.011L170.758 118.105L168.317 112.378L170.756 106.225Z" fill="#7687C3"/>
<path d="M157.515 110.121C157.515 110.121 157.528 110.208 157.54 110.376C157.551 110.556 157.566 110.799 157.586 111.104C157.622 111.737 157.677 112.654 157.754 113.783C157.906 116.046 158.17 119.163 158.584 122.591C159 126.02 159.487 129.1 159.878 131.321C160.073 132.433 160.236 133.329 160.352 133.949C160.408 134.249 160.451 134.489 160.482 134.663C160.51 134.828 160.523 134.914 160.52 134.914C160.515 134.914 160.495 134.831 160.459 134.669C160.421 134.495 160.37 134.258 160.307 133.961C160.175 133.347 159.997 132.451 159.792 131.342C159.378 129.124 158.875 126.044 158.459 122.612C158.045 119.181 157.797 116.058 157.665 113.792C157.599 112.66 157.556 111.743 157.538 111.107C157.53 110.802 157.523 110.556 157.518 110.376C157.515 110.208 157.515 110.121 157.518 110.121H157.515Z" fill="#647A84"/>
<path d="M184.674 107.043C184.674 107.043 184.654 107.094 184.605 107.184C184.55 107.286 184.479 107.415 184.392 107.574C184.197 107.928 183.928 108.413 183.6 109C182.935 110.208 182.037 111.892 181.106 113.792C181.068 113.867 181.032 113.942 180.999 114.011L180.938 114.134L180.887 114.005C180.697 113.523 180.502 113.052 180.205 112.708C179.913 112.366 179.517 112.159 179.146 112.24C178.776 112.309 178.481 112.609 178.273 112.917C178.063 113.232 177.928 113.577 177.837 113.906C177.656 114.563 177.552 115.117 177.42 115.477C177.36 115.659 177.296 115.791 177.255 115.881C177.21 115.968 177.184 116.013 177.179 116.01C177.169 116.004 177.266 115.821 177.377 115.456C177.494 115.093 177.585 114.545 177.755 113.873C177.842 113.538 177.976 113.175 178.192 112.842C178.405 112.516 178.715 112.189 179.126 112.108C179.54 112.012 179.979 112.243 180.288 112.606C180.606 112.971 180.806 113.46 180.999 113.942L180.887 113.936C180.92 113.867 180.958 113.792 180.994 113.718C181.928 111.815 182.839 110.136 183.524 108.941C183.867 108.344 184.149 107.865 184.349 107.538C184.443 107.385 184.522 107.262 184.583 107.163C184.636 107.079 184.666 107.037 184.671 107.04L184.674 107.043Z" fill="#647A84"/>
<path d="M180.149 112.591C180.149 112.591 180.134 112.636 180.098 112.717C180.052 112.809 179.996 112.926 179.93 113.064C179.771 113.382 179.555 113.81 179.293 114.329C179.017 114.865 178.692 115.495 178.334 116.193C178.151 116.544 177.961 116.909 177.763 117.29C177.662 117.482 177.56 117.676 177.456 117.871C177.426 117.922 177.39 117.973 177.337 118.015C177.283 118.057 177.205 118.072 177.144 118.045C177.017 117.997 176.953 117.862 176.903 117.772C176.009 116.187 175.347 114.659 174.824 113.583C174.568 113.04 174.357 112.606 174.207 112.306C174.06 112.006 173.976 111.841 173.984 111.835C173.987 111.835 174.012 111.871 174.058 111.946C174.101 112.021 174.169 112.132 174.248 112.279C174.41 112.57 174.634 112.998 174.9 113.532C175.441 114.596 176.118 116.118 177.004 117.691C177.06 117.793 177.111 117.88 177.179 117.904C177.24 117.931 177.301 117.874 177.354 117.787C177.456 117.592 177.557 117.401 177.659 117.215C177.859 116.837 178.052 116.472 178.235 116.121C178.603 115.432 178.936 114.805 179.217 114.275C179.494 113.765 179.72 113.349 179.89 113.037C179.966 112.905 180.027 112.794 180.078 112.705C180.121 112.63 180.146 112.591 180.151 112.594L180.149 112.591Z" fill="#647A84"/>
<path d="M197.359 113.46C197.359 113.46 197.339 113.529 197.288 113.655C197.229 113.792 197.153 113.975 197.059 114.203C196.856 114.677 196.572 115.366 196.232 116.223C195.889 117.08 195.504 118.114 195.098 119.271C194.697 120.431 194.278 121.716 193.879 123.083C193.483 124.452 193.143 125.768 192.854 126.976C192.572 128.183 192.336 129.277 192.161 130.2C191.981 131.123 191.846 131.876 191.76 132.394C191.717 132.643 191.681 132.841 191.656 132.99C191.631 133.128 191.615 133.197 191.61 133.197C191.605 133.197 191.613 133.122 191.631 132.984C191.651 132.832 191.679 132.631 191.712 132.382C191.783 131.858 191.905 131.102 192.075 130.176C192.24 129.247 192.466 128.147 192.742 126.937C193.024 125.726 193.364 124.404 193.76 123.035C194.161 121.665 194.582 120.38 194.991 119.22C195.405 118.063 195.798 117.032 196.151 116.181C196.501 115.327 196.798 114.644 197.016 114.179C197.12 113.957 197.204 113.777 197.265 113.643C197.323 113.52 197.356 113.46 197.359 113.46Z" fill="#647A84"/>
<path d="M183.141 150.702C183.141 150.702 183.075 150.702 182.946 150.693C182.806 150.681 182.623 150.663 182.39 150.642C182.149 150.621 181.854 150.588 181.514 150.537C181.174 150.489 180.783 150.441 180.357 150.363C179.499 150.225 178.484 150.016 177.365 149.743C176.248 149.458 175.025 149.105 173.758 148.664C172.494 148.218 171.306 147.726 170.238 147.241C169.172 146.746 168.225 146.267 167.446 145.829C167.053 145.619 166.705 145.406 166.395 145.227C166.086 145.05 165.824 144.885 165.614 144.747C165.411 144.615 165.248 144.51 165.124 144.432C165.012 144.361 164.956 144.319 164.956 144.313C164.956 144.307 165.02 144.34 165.134 144.406C165.258 144.477 165.426 144.573 165.634 144.696C165.85 144.825 166.114 144.981 166.426 145.152C166.736 145.323 167.086 145.529 167.482 145.733C168.266 146.159 169.215 146.626 170.279 147.112C171.347 147.588 172.532 148.074 173.794 148.52C175.058 148.961 176.273 149.317 177.387 149.608C178.504 149.89 179.514 150.109 180.367 150.258C180.793 150.342 181.182 150.396 181.519 150.453C181.859 150.51 182.151 150.552 182.392 150.582C182.623 150.615 182.806 150.642 182.946 150.663C183.073 150.684 183.139 150.696 183.139 150.702H183.141Z" fill="#647A84"/>
<path d="M181.765 151.343C181.765 151.343 181.722 151.361 181.639 151.382C181.54 151.403 181.418 151.433 181.268 151.466C180.946 151.538 180.476 151.625 179.895 151.718C178.733 151.907 177.118 152.102 175.332 152.176C173.542 152.248 171.921 152.188 170.751 152.093C170.167 152.045 169.692 151.997 169.367 151.955C169.215 151.934 169.093 151.916 168.992 151.904C168.906 151.889 168.862 151.88 168.862 151.877C168.862 151.871 168.908 151.871 168.994 151.877C169.093 151.883 169.22 151.892 169.37 151.901C169.697 151.928 170.169 151.961 170.753 151.994C171.923 152.06 173.54 152.105 175.324 152.033C177.108 151.958 178.72 151.781 179.882 151.619C180.463 151.538 180.933 151.466 181.258 151.415C181.408 151.394 181.532 151.373 181.634 151.361C181.72 151.349 181.765 151.346 181.765 151.352V151.343Z" fill="#647A84"/>
<path d="M192.768 134.86C192.768 134.86 192.775 134.786 192.803 134.645C192.836 134.492 192.879 134.288 192.933 134.033C193.049 133.488 193.214 132.727 193.415 131.792C193.823 129.898 194.364 127.275 195.029 124.398C195.364 122.96 195.707 121.596 196.042 120.365C196.379 119.136 196.704 118.036 197.004 117.122C197.146 116.663 197.293 116.256 197.417 115.896C197.539 115.537 197.653 115.228 197.75 114.979C197.841 114.739 197.915 114.551 197.971 114.407C198.021 114.278 198.052 114.209 198.054 114.212C198.057 114.215 198.037 114.287 197.993 114.419C197.943 114.566 197.877 114.76 197.795 115.003C197.707 115.255 197.6 115.564 197.483 115.926C197.366 116.289 197.227 116.696 197.09 117.158C196.8 118.072 196.488 119.175 196.156 120.404C195.831 121.635 195.491 122.999 195.156 124.434C194.491 127.308 193.935 129.928 193.506 131.816C193.293 132.76 193.115 133.521 192.986 134.048C192.922 134.3 192.872 134.501 192.834 134.651C192.798 134.789 192.778 134.86 192.773 134.857L192.768 134.86Z" fill="#647A84"/>
<path d="M160.317 134.369C160.317 134.369 160.269 134.309 160.185 134.189C160.104 134.066 159.974 133.892 159.83 133.647C159.53 133.17 159.132 132.442 158.721 131.495C158.307 130.548 157.901 129.37 157.558 128.022C157.213 126.673 156.941 125.154 156.749 123.547C156.378 120.326 156.317 117.386 156.205 115.267C156.155 114.206 156.109 113.349 156.071 112.759C156.053 112.474 156.04 112.246 156.028 112.075C156.02 111.919 156.018 111.835 156.02 111.835C156.023 111.835 156.035 111.916 156.053 112.072C156.068 112.228 156.094 112.456 156.119 112.753C156.172 113.343 156.233 114.2 156.294 115.261C156.429 117.38 156.505 120.317 156.873 123.526C157.066 125.127 157.332 126.64 157.667 127.983C158.002 129.325 158.398 130.503 158.799 131.45C159.198 132.4 159.581 133.131 159.868 133.617C160.005 133.866 160.129 134.045 160.203 134.174C160.279 134.3 160.319 134.369 160.314 134.372L160.317 134.369Z" fill="#647A84"/>
<path d="M159.137 127.77C159.144 127.815 158.776 127.908 158.386 128.18C157.992 128.447 157.743 128.78 157.716 128.753C157.688 128.732 157.906 128.339 158.322 128.052C158.736 127.761 159.134 127.731 159.137 127.767V127.77Z" fill="#647A84"/>
<path d="M158.901 123.922C158.906 123.967 158.444 124.015 157.954 124.323C157.459 124.626 157.165 125.049 157.137 125.019C157.109 125.004 157.373 124.515 157.896 124.195C158.416 123.868 158.906 123.886 158.901 123.922Z" fill="#647A84"/>
<path d="M158.188 120.404C158.188 120.449 157.825 120.469 157.436 120.703C157.043 120.928 156.809 121.258 156.779 121.231C156.751 121.213 156.957 120.817 157.38 120.571C157.802 120.323 158.195 120.368 158.188 120.404Z" fill="#647A84"/>
<path d="M157.84 116.771C157.845 116.813 157.523 116.888 157.157 117.074C156.789 117.257 156.523 117.482 156.5 117.449C156.477 117.422 156.721 117.131 157.109 116.939C157.495 116.744 157.84 116.735 157.842 116.774L157.84 116.771Z" fill="#647A84"/>
<path d="M157.639 113.834C157.644 113.879 157.317 113.948 156.954 114.152C156.589 114.353 156.335 114.605 156.309 114.572C156.284 114.548 156.513 114.23 156.901 114.017C157.287 113.801 157.639 113.795 157.639 113.834Z" fill="#647A84"/>
<path d="M193.42 130.371C193.389 130.395 193.224 130.134 192.922 129.994C192.623 129.844 192.349 129.898 192.341 129.853C192.326 129.817 192.626 129.688 192.968 129.853C193.313 130.015 193.45 130.356 193.42 130.368V130.371Z" fill="#647A84"/>
<path d="M194.364 127.371C194.331 127.389 194.199 126.943 193.806 126.649C193.417 126.343 193.019 126.388 193.019 126.343C193.019 126.325 193.113 126.286 193.275 126.292C193.438 126.298 193.664 126.364 193.874 126.523C194.085 126.685 194.227 126.901 194.298 127.072C194.369 127.245 194.379 127.365 194.364 127.368V127.371Z" fill="#647A84"/>
<path d="M195.072 124.075C195.042 124.102 194.839 123.73 194.43 123.547C194.026 123.352 193.664 123.457 193.656 123.412C193.651 123.394 193.737 123.343 193.887 123.317C194.037 123.29 194.255 123.308 194.476 123.409C194.694 123.511 194.861 123.676 194.958 123.817C195.054 123.958 195.085 124.066 195.072 124.075Z" fill="#647A84"/>
<path d="M195.905 120.904C195.872 120.925 195.74 120.631 195.448 120.454C195.158 120.269 194.879 120.305 194.874 120.263C194.872 120.245 194.94 120.209 195.057 120.2C195.174 120.191 195.344 120.224 195.506 120.323C195.669 120.425 195.785 120.571 195.846 120.691C195.907 120.811 195.92 120.898 195.905 120.907V120.904Z" fill="#647A84"/>
<path d="M196.882 117.994C196.849 118.015 196.714 117.658 196.367 117.479C196.024 117.284 195.707 117.392 195.699 117.35C195.694 117.335 195.765 117.278 195.9 117.251C196.034 117.224 196.229 117.239 196.42 117.344C196.61 117.449 196.747 117.613 196.816 117.751C196.887 117.889 196.897 117.991 196.882 117.997V117.994Z" fill="#647A84"/>
<path d="M180.925 113.834C180.925 113.834 180.91 113.885 180.872 113.972C180.824 114.074 180.766 114.2 180.694 114.356C180.537 114.686 180.304 115.162 180.009 115.746C179.715 116.331 179.359 117.02 178.953 117.778C178.75 118.156 178.532 118.551 178.301 118.956C178.068 119.361 177.827 119.777 177.532 120.176C177.456 120.275 177.385 120.371 177.271 120.451C177.243 120.475 177.202 120.481 177.159 120.478C177.118 120.478 177.096 120.454 177.063 120.443C177.009 120.407 176.961 120.371 176.918 120.326C176.745 120.158 176.608 119.966 176.474 119.777C176.207 119.4 175.974 119.016 175.753 118.647C175.316 117.91 174.946 117.23 174.639 116.657C174.334 116.082 174.093 115.612 173.931 115.285C173.857 115.132 173.796 115.006 173.748 114.904C173.707 114.817 173.687 114.769 173.692 114.766C173.695 114.766 173.723 114.805 173.771 114.889C173.824 114.988 173.893 115.108 173.974 115.255C174.159 115.591 174.41 116.046 174.715 116.601C175.03 117.167 175.408 117.841 175.849 118.569C176.07 118.932 176.306 119.313 176.568 119.684C176.7 119.867 176.839 120.056 176.997 120.209C177.073 120.281 177.169 120.362 177.215 120.317C177.286 120.266 177.367 120.17 177.436 120.077C177.717 119.693 177.961 119.274 178.195 118.875C178.428 118.474 178.646 118.081 178.852 117.703C179.263 116.951 179.626 116.265 179.931 115.689C180.227 115.126 180.469 114.665 180.649 114.326C180.73 114.176 180.793 114.056 180.847 113.957C180.892 113.873 180.92 113.831 180.923 113.834H180.925Z" fill="#647A84"/>
<path d="M175.519 118.099C175.504 118.099 175.474 117.997 175.486 117.826C175.497 117.655 175.56 117.419 175.7 117.209C175.839 116.999 176.019 116.87 176.159 116.819C176.299 116.765 176.39 116.777 176.393 116.795C176.403 116.837 176.05 116.912 175.799 117.302C175.537 117.679 175.555 118.102 175.519 118.102V118.099Z" fill="#647A84"/>
<path d="M177.187 120.46C177.154 120.466 177.068 119.939 177.065 119.28C177.06 118.62 177.141 118.093 177.174 118.096C177.209 118.102 177.187 118.629 177.192 119.277C177.194 119.927 177.224 120.454 177.189 120.457L177.187 120.46Z" fill="#647A84"/>
<path d="M179.08 117.452C179.045 117.464 178.966 117.131 178.702 116.879C178.443 116.618 178.154 116.586 178.156 116.541C178.156 116.523 178.233 116.502 178.352 116.526C178.471 116.547 178.636 116.621 178.781 116.765C178.925 116.909 179.017 117.086 179.055 117.221C179.095 117.359 179.093 117.449 179.078 117.452H179.08Z" fill="#647A84"/>
<path d="M180.316 115.009C180.281 115.015 180.238 114.68 180.004 114.392C179.778 114.098 179.494 114.023 179.502 113.981C179.502 113.963 179.58 113.954 179.697 113.993C179.814 114.032 179.966 114.128 180.095 114.29C180.222 114.452 180.293 114.638 180.319 114.778C180.344 114.919 180.332 115.009 180.316 115.009Z" fill="#647A84"/>
<path d="M174.258 115.863C174.243 115.866 174.202 115.749 174.197 115.549C174.19 115.348 174.23 115.066 174.352 114.793C174.476 114.521 174.652 114.323 174.796 114.221C174.941 114.116 175.045 114.089 175.05 114.107C175.07 114.146 174.687 114.353 174.461 114.865C174.225 115.372 174.294 115.863 174.256 115.863H174.258Z" fill="#647A84"/>
<g opacity="0.4">
<path d="M170.692 106.201C171.235 108.665 172.144 112.675 173.126 115.815C173.172 115.959 173.22 116.109 173.314 116.214C173.563 116.496 173.992 116.322 174.228 116.025C174.451 115.743 174.58 115.378 174.763 115.06C174.946 114.739 175.215 114.446 175.542 114.431C175.809 114.419 176.058 114.605 176.233 114.841C176.408 115.078 176.525 115.366 176.657 115.639C176.728 115.785 176.816 115.944 176.956 115.977C177.096 116.01 177.25 115.86 177.169 115.68L176.299 113.019C176.299 113.019 175.9 111.068 174.517 111.371C172.971 111.71 173.672 114.706 173.672 114.706C173.672 114.706 170.664 106.099 170.69 106.204L170.692 106.201Z" fill="black"/>
</g>
<path d="M177.212 115.788C177.212 115.788 177.182 115.731 177.139 115.615C177.093 115.498 177.032 115.324 176.953 115.102C176.796 114.635 176.58 113.987 176.314 113.193C176.245 112.992 176.172 112.782 176.093 112.567C176.012 112.351 175.923 112.138 175.776 111.961C175.487 111.614 175.037 111.377 174.573 111.431C174.347 111.467 174.108 111.575 173.938 111.767C173.766 111.961 173.679 112.249 173.596 112.543C173.514 112.824 173.517 113.139 173.542 113.454C173.568 113.768 173.621 114.089 173.685 114.407C173.71 114.524 173.733 114.641 173.756 114.748L173.636 114.79C173.281 113.583 172.87 112.465 172.497 111.452C172.121 110.439 171.779 109.531 171.509 108.761C171.24 107.99 171.042 107.358 170.923 106.915C170.86 106.696 170.822 106.519 170.794 106.402C170.766 106.285 170.753 106.222 170.758 106.219C170.763 106.219 170.784 106.276 170.817 106.393C170.852 106.507 170.898 106.678 170.969 106.897C171.101 107.331 171.312 107.958 171.591 108.719C171.87 109.483 172.22 110.385 172.601 111.395C172.982 112.405 173.395 113.523 173.753 114.739L173.634 114.781C173.611 114.674 173.586 114.554 173.563 114.437C173.499 114.113 173.443 113.789 173.418 113.463C173.393 113.139 173.388 112.803 173.479 112.492C173.563 112.198 173.657 111.886 173.855 111.662C174.055 111.443 174.306 111.332 174.56 111.293C175.07 111.236 175.542 111.497 175.852 111.874C176.009 112.066 176.106 112.303 176.182 112.519C176.261 112.738 176.332 112.95 176.398 113.151C176.649 113.951 176.854 114.605 177.002 115.075C177.07 115.291 177.124 115.465 177.167 115.6C177.205 115.719 177.222 115.782 177.217 115.785L177.212 115.788Z" fill="#647A84"/>
<g opacity="0.4">
<path d="M177.334 115.716C177.281 115.758 177.319 115.869 177.382 115.884C177.446 115.899 177.507 115.857 177.557 115.809C177.88 115.513 178.063 115.057 178.288 114.659C178.517 114.257 178.849 113.873 179.258 113.87C179.692 113.87 180.04 114.299 180.255 114.742C180.469 115.189 180.616 115.692 180.925 116.055C182.479 113.364 183.722 110.421 184.608 107.337C184.098 107.754 183.765 108.401 183.446 109.03C182.621 110.655 181.798 112.276 180.974 113.9C180.801 113.427 180.595 112.956 180.278 112.603C179.958 112.249 179.504 112.03 179.08 112.15C178.598 112.282 178.266 112.797 178.03 113.31C177.684 114.062 177.461 114.889 177.37 115.734" fill="black"/>
</g>
<path d="M209.747 139.724C209.747 139.724 209.681 139.614 209.582 139.398C209.483 139.182 209.346 138.867 209.186 138.472C208.864 137.684 208.455 136.572 208.072 135.313C207.691 134.054 207.409 132.889 207.232 132.037C207.143 131.612 207.079 131.267 207.039 131.024C206.998 130.785 206.98 130.65 206.991 130.647C206.998 130.647 207.034 130.776 207.087 131.009C207.148 131.273 207.224 131.609 207.318 132.007C207.516 132.85 207.81 134.006 208.188 135.262C208.569 136.515 208.965 137.63 209.265 138.427C209.409 138.804 209.529 139.122 209.622 139.371C209.709 139.593 209.752 139.718 209.744 139.724H209.747Z" fill="#647A84"/>
<path d="M207.333 139.161C207.333 139.161 207.29 139.047 207.232 138.834C207.173 138.622 207.1 138.307 207.018 137.917C206.856 137.138 206.686 136.044 206.602 134.822C206.521 133.599 206.546 132.484 206.602 131.687C206.63 131.288 206.661 130.965 206.691 130.743C206.719 130.521 206.739 130.398 206.747 130.401C206.754 130.401 206.752 130.527 206.739 130.749C206.724 130.971 206.706 131.294 206.691 131.693C206.658 132.49 206.648 133.596 206.729 134.81C206.81 136.023 206.968 137.114 207.107 137.896C207.176 138.286 207.237 138.604 207.28 138.819C207.323 139.038 207.343 139.158 207.333 139.161Z" fill="#647A84"/>
<path d="M215.089 112.926C215.089 112.926 215.153 112.947 215.285 113.013L215.323 113.034L215.282 113.052C214.731 113.286 212.8 114.008 210.437 114.515C209.021 114.823 207.724 115 206.785 115.09C206.315 115.135 205.935 115.162 205.671 115.174C205.407 115.186 205.262 115.186 205.262 115.174C205.262 115.165 205.407 115.144 205.668 115.114C205.952 115.081 206.326 115.036 206.777 114.985C207.714 114.868 209.003 114.677 210.414 114.368C212.77 113.861 214.706 113.187 215.272 113.013V113.049C215.143 112.971 215.087 112.932 215.089 112.926Z" fill="#647A84"/>
<path d="M212.902 111.626C212.902 111.626 212.927 111.578 213.006 111.551C213.082 111.524 213.211 111.539 213.33 111.635C213.445 111.728 213.574 111.916 213.541 112.168C213.523 112.288 213.452 112.405 213.356 112.468C213.259 112.534 213.143 112.558 213.031 112.54C212.919 112.522 212.813 112.468 212.731 112.375C212.65 112.282 212.61 112.15 212.612 112.03C212.62 111.782 212.762 111.62 212.884 111.539C213.011 111.458 213.135 111.452 213.211 111.476C213.29 111.5 213.32 111.542 213.318 111.545C213.315 111.572 213.145 111.458 212.929 111.626C212.83 111.704 212.726 111.85 212.729 112.027C212.724 112.207 212.866 112.363 213.049 112.387C213.226 112.417 213.401 112.306 213.429 112.135C213.46 111.967 213.371 111.803 213.28 111.716C213.186 111.626 213.084 111.596 213.016 111.605C212.947 111.611 212.909 111.635 212.904 111.623L212.902 111.626Z" fill="#647A84"/>
<path d="M175.187 117.952C175.187 117.952 175.141 118.006 175.047 118.096C174.951 118.183 174.819 118.324 174.629 118.477C174.258 118.797 173.69 119.214 172.941 119.609C172.192 120.008 171.248 120.359 170.169 120.541C169.629 120.622 169.058 120.673 168.466 120.649C167.875 120.625 167.263 120.538 166.649 120.383C165.421 120.056 164.314 119.519 163.274 119.19C162.753 119.019 162.251 118.899 161.776 118.842C161.302 118.788 160.852 118.8 160.451 118.857C159.644 118.974 159.028 119.298 158.655 119.603C158.279 119.906 158.117 120.143 158.104 120.128C158.104 120.128 158.254 119.879 158.627 119.555C158.995 119.232 159.619 118.884 160.439 118.752C160.847 118.686 161.302 118.671 161.786 118.719C162.269 118.773 162.779 118.89 163.304 119.058C164.355 119.385 165.464 119.915 166.677 120.236C167.284 120.389 167.888 120.475 168.471 120.502C169.058 120.526 169.621 120.481 170.157 120.404C171.223 120.233 172.159 119.897 172.908 119.513C173.657 119.13 174.228 118.731 174.603 118.429C174.796 118.285 174.933 118.15 175.035 118.072C175.134 117.991 175.187 117.949 175.19 117.952H175.187Z" fill="#FAFAFA"/>
<path d="M191.316 130.293C191.316 130.293 191.288 130.281 191.24 130.251C191.184 130.218 191.113 130.173 191.022 130.116C190.925 130.059 190.801 130 190.656 129.922C190.506 129.862 190.339 129.775 190.138 129.715C189.352 129.433 188.138 129.292 186.682 129.565C185.953 129.691 185.166 129.925 184.329 130.194C183.491 130.464 182.598 130.779 181.636 131.009C180.677 131.243 179.636 131.366 178.57 131.231C177.502 131.114 176.431 130.758 175.357 130.338C174.286 129.913 173.261 129.436 172.253 129.041C171.248 128.636 170.253 128.336 169.289 128.183C167.355 127.872 165.581 128.106 164.152 128.513C163.436 128.72 162.807 128.984 162.261 129.235C161.992 129.373 161.741 129.496 161.515 129.625C161.292 129.76 161.083 129.871 160.903 129.991C160.723 130.107 160.563 130.215 160.424 130.308C160.289 130.404 160.175 130.488 160.081 130.557C159.992 130.62 159.924 130.671 159.87 130.71C159.822 130.743 159.797 130.761 159.797 130.758C159.797 130.758 159.817 130.734 159.865 130.698C159.916 130.656 159.984 130.602 160.071 130.533C160.162 130.461 160.271 130.371 160.408 130.272C160.548 130.176 160.705 130.065 160.883 129.943C161.063 129.82 161.271 129.703 161.492 129.565C161.718 129.433 161.969 129.304 162.238 129.163C162.784 128.906 163.416 128.633 164.137 128.417C165.571 127.992 167.36 127.746 169.309 128.055C170.284 128.204 171.286 128.507 172.296 128.912C173.309 129.307 174.334 129.784 175.403 130.206C176.469 130.623 177.532 130.977 178.588 131.093C179.641 131.231 180.667 131.111 181.618 130.884C182.573 130.659 183.466 130.35 184.306 130.083C185.146 129.817 185.935 129.589 186.671 129.469C188.141 129.205 189.367 129.364 190.156 129.667C190.357 129.733 190.524 129.823 190.674 129.889C190.818 129.97 190.943 130.035 191.037 130.098C191.126 130.161 191.197 130.209 191.25 130.245C191.298 130.278 191.321 130.299 191.321 130.299L191.316 130.293Z" fill="#FAFAFA"/>
<path d="M178.527 117.739C178.532 117.721 178.753 117.841 179.177 117.907C179.598 117.979 180.227 117.964 180.966 117.739C181.71 117.527 182.54 117.068 183.486 116.627C183.961 116.409 184.474 116.205 185.022 116.088C185.57 115.974 186.151 115.926 186.74 115.971C187.923 116.052 189.019 116.427 189.961 116.885C190.905 117.347 191.704 117.883 192.362 118.357C193.019 118.83 193.534 119.244 193.889 119.528C194.057 119.666 194.191 119.777 194.296 119.864C194.387 119.942 194.435 119.984 194.433 119.99C194.433 119.993 194.379 119.96 194.283 119.891C194.176 119.813 194.037 119.708 193.864 119.579C193.501 119.31 192.978 118.911 192.318 118.45C191.659 117.991 190.857 117.467 189.917 117.017C188.981 116.571 187.897 116.205 186.735 116.127C186.154 116.085 185.585 116.127 185.045 116.238C184.504 116.352 184.001 116.55 183.527 116.762C182.585 117.197 181.743 117.646 180.986 117.85C180.233 118.066 179.593 118.066 179.167 117.976C178.738 117.889 178.524 117.751 178.524 117.751L178.527 117.739Z" fill="#FAFAFA"/>
<path d="M193.359 110.223C193.359 110.223 193.232 110.28 192.999 110.352C192.882 110.391 192.737 110.433 192.567 110.472C192.397 110.511 192.207 110.565 191.991 110.601C191.562 110.688 191.047 110.757 190.473 110.793C189.9 110.823 189.265 110.82 188.605 110.754C187.943 110.685 187.319 110.562 186.758 110.418C186.197 110.265 185.699 110.097 185.291 109.926C185.083 109.849 184.902 109.759 184.743 109.684C184.58 109.612 184.446 109.54 184.336 109.48C184.116 109.36 183.996 109.291 183.999 109.279C184.001 109.27 184.128 109.321 184.354 109.426C184.466 109.48 184.605 109.543 184.768 109.606C184.93 109.672 185.113 109.756 185.319 109.825C185.73 109.983 186.225 110.139 186.783 110.283C187.341 110.418 187.961 110.535 188.616 110.604C189.27 110.667 189.9 110.676 190.468 110.652C191.037 110.622 191.549 110.565 191.976 110.493C192.192 110.463 192.382 110.418 192.552 110.385C192.722 110.355 192.867 110.319 192.983 110.289C193.219 110.232 193.354 110.205 193.354 110.217L193.359 110.223Z" fill="#FAFAFA"/>
<path d="M157.617 112.147C157.617 112.147 157.652 112.102 157.728 112.03C157.804 111.958 157.913 111.853 158.061 111.722C158.353 111.458 158.781 111.086 159.327 110.655C160.416 109.795 161.995 108.677 163.921 107.976C165.85 107.274 167.723 107.25 169.012 107.556C169.659 107.703 170.169 107.898 170.509 108.062C170.682 108.137 170.809 108.218 170.898 108.263C170.984 108.311 171.03 108.341 171.027 108.344C171.022 108.356 170.837 108.26 170.492 108.116C170.149 107.97 169.639 107.79 168.997 107.661C167.715 107.385 165.865 107.424 163.956 108.119C162.048 108.815 160.472 109.908 159.373 110.745C158.822 111.164 158.388 111.521 158.086 111.77C157.944 111.886 157.83 111.979 157.738 112.054C157.66 112.117 157.614 112.15 157.611 112.147H157.617Z" fill="#FAFAFA"/>
<path d="M189.562 143.575C189.562 143.575 189.539 143.584 189.491 143.599C189.435 143.614 189.367 143.632 189.278 143.653C189.184 143.68 189.067 143.701 188.928 143.716C188.857 143.725 188.783 143.734 188.702 143.743C188.621 143.743 188.534 143.749 188.445 143.752C187.715 143.788 186.664 143.566 185.43 143.096C184.811 142.868 184.141 142.589 183.413 142.335C182.684 142.08 181.89 141.882 181.04 141.792C179.339 141.6 177.453 141.843 175.514 142.26C173.57 142.673 171.735 143.195 170.027 143.435C168.324 143.683 166.763 143.701 165.477 143.47C164.185 143.264 163.19 142.802 162.543 142.425C162.383 142.326 162.238 142.239 162.116 142.158C162 142.071 161.901 141.996 161.817 141.933C161.741 141.876 161.682 141.828 161.634 141.792C161.594 141.759 161.573 141.741 161.576 141.741C161.576 141.741 161.599 141.753 161.642 141.78C161.69 141.813 161.753 141.855 161.83 141.909C161.913 141.969 162.015 142.038 162.134 142.119C162.261 142.194 162.403 142.278 162.566 142.371C163.218 142.73 164.208 143.174 165.492 143.366C166.771 143.581 168.322 143.554 170.017 143.3C171.715 143.054 173.547 142.529 175.497 142.116C177.441 141.696 179.339 141.457 181.055 141.657C181.91 141.753 182.715 141.957 183.446 142.218C184.177 142.479 184.844 142.763 185.461 142.997C186.689 143.476 187.725 143.713 188.448 143.695C188.537 143.695 188.623 143.695 188.704 143.695C188.783 143.686 188.859 143.68 188.928 143.674C189.067 143.665 189.184 143.647 189.278 143.626C189.367 143.611 189.438 143.596 189.491 143.587C189.539 143.578 189.565 143.575 189.565 143.578L189.562 143.575Z" fill="#FAFAFA"/>
<g opacity="0.3">
<path d="M167.2 145.64C168.35 149.03 170.576 151.436 173.639 151.934C176.702 152.431 179.801 151.604 182.783 150.645C177.36 149.749 172.56 148.862 167.2 145.64Z" fill="black"/>
</g>
<path d="M190.339 154.961C190.339 154.961 190.313 154.952 190.263 154.928C190.207 154.901 190.138 154.865 190.047 154.82C189.851 154.718 189.577 154.574 189.227 154.391C188.514 154.02 187.491 153.453 186.215 152.8C185.572 152.482 184.859 152.158 184.065 151.94C183.273 151.718 182.392 151.643 181.486 151.799C181.035 151.877 180.575 152 180.116 152.167C179.659 152.338 179.2 152.545 178.743 152.782C177.827 153.252 176.915 153.843 175.976 154.436C175.037 155.029 174.103 155.578 173.154 155.985C172.207 156.39 171.246 156.654 170.314 156.669C169.38 156.699 168.504 156.438 167.743 156.072C166.977 155.707 166.312 155.254 165.705 154.85C165.099 154.442 164.553 154.07 164.055 153.786C163.558 153.504 163.119 153.282 162.746 153.156C162.563 153.078 162.393 153.04 162.248 152.998C162.104 152.953 161.979 152.929 161.878 152.914C161.781 152.896 161.705 152.881 161.647 152.872C161.596 152.86 161.568 152.854 161.568 152.851C161.568 152.851 161.596 152.851 161.647 152.857C161.705 152.863 161.784 152.875 161.88 152.887C161.982 152.899 162.109 152.917 162.256 152.959C162.403 152.998 162.576 153.031 162.761 153.105C163.139 153.222 163.583 153.441 164.088 153.717C164.591 153.996 165.142 154.364 165.751 154.766C166.36 155.164 167.025 155.611 167.784 155.967C168.54 156.324 169.398 156.576 170.314 156.54C171.23 156.522 172.177 156.261 173.116 155.857C174.055 155.452 174.984 154.904 175.92 154.313C176.857 153.72 177.771 153.129 178.697 152.659C179.159 152.422 179.621 152.212 180.085 152.042C180.55 151.877 181.014 151.751 181.474 151.673C182.395 151.517 183.291 151.601 184.093 151.829C184.895 152.054 185.613 152.386 186.253 152.71C187.529 153.378 188.544 153.96 189.253 154.346C189.6 154.541 189.872 154.694 190.065 154.802C190.151 154.853 190.222 154.892 190.275 154.925C190.321 154.952 190.346 154.97 190.344 154.97L190.339 154.961Z" fill="#FAFAFA"/>
</g>
<defs>
<clipPath id="clip0_2049_358">
<rect width="152.972" height="118.131" fill="white" transform="translate(96.3673 50.4714)"/>
</clipPath>
</defs>
</svg>
