<svg width="19" height="19" viewBox="0 0 19 19" fill="none" xmlns="http://www.w3.org/2000/svg">
<path fill-rule="evenodd" clip-rule="evenodd" d="M0.701904 3.36663C0.701904 1.87546 1.91074 0.666626 3.4019 0.666626H16.0019C17.4931 0.666626 18.7019 1.87546 18.7019 3.36663V15.9666C18.7019 17.4578 17.4931 18.6666 16.0019 18.6666H3.4019C1.91074 18.6666 0.701904 17.4578 0.701904 15.9666V3.36663Z" fill="#524E9C"/>
<path fill-rule="evenodd" clip-rule="evenodd" d="M14.1248 6.33032C14.4763 6.68179 14.4763 7.25164 14.1248 7.60311L8.5384 13.4531C8.18693 13.8046 7.61708 13.8046 7.26561 13.4531L4.56561 10.7531C4.21413 10.4016 4.21413 9.83179 4.56561 9.48032C4.91708 9.12885 5.48693 9.12885 5.8384 9.48032L7.902 11.5439L12.852 6.33032C13.2035 5.97885 13.7733 5.97885 14.1248 6.33032Z" fill="white"/>
</svg>
