<svg width="33" height="24" viewBox="0 0 33 24" fill="none" xmlns="http://www.w3.org/2000/svg">
<path d="M25.5037 23.6424H20.3316H18.9389H18.6381V16.705H20.907C21.4824 16.705 21.8224 16.0511 21.4824 15.5803L17.0689 9.47324C16.7877 9.08092 16.2058 9.08092 15.9246 9.47324L11.511 15.5803C11.171 16.0511 11.5045 16.705 12.0864 16.705H14.3553V23.6424H14.0546H12.6618H6.66592C3.23314 23.4528 0.5 20.2423 0.5 16.7638C0.5 14.3641 1.80119 12.2718 3.73008 11.1406C3.55354 10.6633 3.46199 10.1533 3.46199 9.61709C3.46199 7.1651 5.4432 5.1839 7.89518 5.1839C8.42481 5.1839 8.93482 5.27544 9.41214 5.45199C10.831 2.44422 13.8911 0.358398 17.4481 0.358398C22.0513 0.364937 25.8437 3.88925 26.2752 8.38129C29.8126 8.98938 32.5 12.2652 32.5 15.9726C32.5 19.935 29.4138 23.3678 25.5037 23.6424Z" fill="#524E9C"/>
</svg>
